<svg version="1.1" xmlns="http://www.w3.org/2000/svg" width="309" height="96" viewBox="0 0 103 32">
   <path
      d="M21.174 1.38c-1.341 0.479-3.123 2.089-4.867 4.407-0.46 0.613-0.862 1.111-0.92 1.111s-0.786-0.594-1.648-1.341c-2.74-2.338-5.365-3.372-6.572-2.606-0.766 0.517-1.092 1.514-0.939 2.874 0.134 1.265 0.824 3.564 1.533 5.174 0.268 0.594 0.479 1.15 0.479 1.245 0 0.345-0.613 0.383-1.341 0.096-0.632-0.249-0.824-0.268-1.284-0.038-0.287 0.134-0.671 0.537-0.824 0.862-0.192 0.402-0.824 0.977-1.82 1.629-2.165 1.437-2.702 2.414-2.012 3.698 0.575 1.073 3.411 2.089 6.553 2.357 0.881 0.077 1.571 0.23 1.552 0.326 0 0.115-0.172 1.092-0.345 2.184-0.441 2.568-0.326 4.656 0.326 5.787 0.556 1.016 1.15 1.207 2.491 0.805 0.805-0.23 1.265-0.575 2.529-1.859 0.862-0.862 1.897-2.050 2.299-2.663 0.594-0.862 0.805-1.035 1.016-0.881 0.134 0.115 0.249 0.498 0.249 0.824 0 0.881 0.671 1.456 1.705 1.456 0.594 0 1.073 0.172 1.84 0.671 3.737 2.376 5.825 1.131 4.982-2.989-0.172-0.881-0.613-2.319-0.996-3.219-0.364-0.901-0.69-1.801-0.69-1.993-0.038-0.268 0.287-0.46 1.36-0.824 3.641-1.226 6.17-3.162 6.17-4.733 0-1.475-2.529-2.74-6.419-3.2-1.054-0.115-1.993-0.287-2.069-0.364-0.096-0.096 0.192-0.441 0.613-0.766 0.613-0.498 0.786-0.747 0.786-1.226 0-0.326-0.153-0.747-0.326-0.958-0.268-0.268-0.364-0.843-0.46-2.319-0.134-2.28-0.46-3.085-1.418-3.487-0.747-0.307-0.766-0.307-1.533-0.038zM22.687 1.82c0.498 0.498 0.747 1.82 0.613 3.238-0.115 1.188-0.192 1.399-0.728 1.84-0.69 0.575-0.805 1.495-0.268 2.069 0.249 0.287 0.268 0.479 0.134 0.881-0.192 0.498-0.23 0.498-2.108 0.498h-1.897l-1.169-1.284c-0.651-0.709-1.169-1.36-1.169-1.456 0-0.268 1.456-2.338 2.587-3.641 1.131-1.36 2.606-2.434 3.277-2.434 0.23 0 0.575 0.134 0.728 0.287zM10.347 3.928c0.652 0.402 1.916 1.418 2.836 2.299l1.648 1.571-0.92 1.61c-0.517 0.881-0.958 1.648-0.996 1.686-0.096 0.096-2.989 0.786-3.353 0.786-0.498 0-2.261-4.081-2.683-6.208-0.192-1.016 0.038-2.299 0.46-2.491 0.575-0.268 1.878 0.058 3.008 0.747zM17.054 10.386c0 0.077-0.307 0.192-0.671 0.249s-0.977 0.134-1.341 0.192c-0.843 0.134-0.862-0.096-0.077-1.341l0.594-0.939 0.747 0.843c0.402 0.479 0.747 0.92 0.747 0.996zM21.998 11.535c-0.058 0.134-0.249 0.709-0.422 1.245-0.192 0.556-0.364 1.016-0.402 1.016-0.134 0-1.629-2.031-1.629-2.223 0-0.096 0.575-0.192 1.265-0.23 0.977-0.038 1.245 0.019 1.188 0.192zM26.922 11.593c2.204 0.345 2.913 0.537 3.679 0.92 1.61 0.843 1.054 2.223-1.437 3.545-1.131 0.613-4.771 1.954-5.269 1.954-0.268 0-1.859-2.568-1.859-3.008 0-0.364 0.747-2.893 0.977-3.372 0.23-0.422 1.495-0.422 3.909-0.038zM18.625 12.244c0.364 0.422 0.977 1.245 1.38 1.82l0.747 1.073-0.824 1.878c-0.46 1.016-0.958 1.954-1.092 2.069s-0.881 0.268-1.648 0.345c-0.747 0.077-1.648 0.172-1.954 0.23-0.556 0.077-0.671-0.019-1.897-1.686-1.495-2.031-1.475-1.974-0.364-4.292 0.652-1.341 0.805-1.514 1.399-1.667s2.472-0.441 3.296-0.498c0.172 0 0.613 0.326 0.958 0.728zM11.746 13.643c-0.268 0.671-0.517 1.245-0.537 1.265-0.077 0.077-1.016-1.36-1.169-1.782-0.096-0.249 0.881-0.613 1.763-0.652l0.422-0.019-0.479 1.188zM9.677 14.505c0.479 0.824 0.862 1.705 0.843 1.974 0 0.268-0.23 1.131-0.517 1.916l-0.517 1.437-1.916-0.038c-3.947-0.096-6.419-0.996-6.419-2.357 0-0.728 0.766-1.475 2.453-2.357 1.284-0.671 1.36-0.69 1.916-0.422 0.805 0.422 1.533 0.192 2.012-0.613 0.307-0.537 0.69-0.862 1.226-0.996 0.019-0.019 0.441 0.652 0.92 1.456zM22.036 17.245c0.345 0.537 0.556 1.035 0.479 1.111-0.153 0.153-2.069 0.613-2.165 0.517-0.038-0.038 0.153-0.537 0.422-1.111 0.268-0.556 0.498-1.131 0.498-1.245 0-0.383 0.134-0.268 0.766 0.728zM12.263 18.491c0.422 0.575 0.766 1.131 0.766 1.245s-0.517 0.192-1.265 0.192c-0.939 0-1.245-0.058-1.188-0.249 0.057-0.115 0.249-0.69 0.441-1.245 0.211-0.537 0.383-0.996 0.422-0.996 0.019 0 0.402 0.479 0.824 1.054zM24.105 21.020c2.012 4.35 2.184 7.147 0.441 7.147-0.613 0-2.146-0.728-3.181-1.475-0.671-0.498-0.786-0.69-0.786-1.284 0-0.977-0.594-1.552-1.59-1.514-1.284 0.058-1.322-0.268-0.307-2.127 0.958-1.763 0.728-1.61 3.066-2.184 1.514-0.383 1.514-0.383 2.357 1.437zM17.686 21.538c-0.287 0.594-0.575 1.073-0.651 1.073-0.058 0-0.479-0.422-0.901-0.939l-0.805-0.958 1.111-0.115c0.594-0.058 1.226-0.134 1.38-0.172 0.441-0.077 0.441-0.038-0.134 1.111zM15.329 22.228l1.188 1.36-0.824 1.188c-2.798 4.062-4.848 5.576-5.959 4.407-0.402-0.422-0.441-0.632-0.422-2.223 0-1.82 0.134-3.066 0.498-4.541 0.383-1.571 0.326-1.533 2.434-1.533h1.878l1.207 1.341z">
   </path>
   <path
      d="M14.869 13.624c-1.571 1.226-1.36 3.449 0.402 4.235 2.625 1.169 4.771-2.069 2.663-4.005-0.575-0.537-0.824-0.632-1.629-0.632-0.652 0-1.073 0.115-1.437 0.402z">
   </path>
   <path
      d="M41.121 11.65c-0.038 0.077-0.019 0.268 0.077 0.402 0.211 0.364-0.671 2.913-1.169 3.315-0.249 0.211-0.345 0.46-0.287 0.69 0.115 0.364-0.709 2.97-1.073 3.43-0.153 0.192-0.077 0.249 0.287 0.249 0.46 0 0.556-0.192 1.82-4.005 1.092-3.296 1.284-4.043 1.054-4.12-0.383-0.153-0.594-0.134-0.709 0.038z">
   </path>
   <path
      d="M42.424 11.765c-0.057 0.172-0.038 0.422 0.077 0.556 0.211 0.268 0.594 1.38 0.728 2.165 0.057 0.307 0.172 0.632 0.249 0.747 0.192 0.23 0.575 1.399 0.709 2.089 0.038 0.287 0.23 0.92 0.422 1.418 0.287 0.766 0.422 0.92 0.901 0.958 0.441 0.058 0.517 0.019 0.345-0.192-0.364-0.441-1.226-3.104-1.15-3.449 0.057-0.192-0.019-0.422-0.172-0.498-0.345-0.192-1.437-3.066-1.38-3.583 0.077-0.46-0.556-0.632-0.728-0.211z">
   </path>
   <path
      d="M47.234 11.823c0.307 0.709 0.345 2.913 0.057 3.372-0.23 0.345-0.23 0.498-0.019 0.901 0.364 0.709 0.326 2.855-0.077 3.296-0.287 0.326-0.268 0.345 0.287 0.345h0.613v-4.005c0-3.468-0.038-4.024-0.307-4.12-0.517-0.192-0.709-0.134-0.556 0.211z">
   </path>
   <path
      d="M48.575 11.689c-0.115 0.192 3.794 6.783 4.158 7.013 0.077 0.058 0.153-1.495 0.153-3.43 0-3.622-0.038-3.775-0.728-3.775-0.077 0-0.115 1.15-0.077 2.529l0.057 2.549-1.188-1.82c-0.651-0.996-1.303-2.127-1.437-2.491-0.23-0.671-0.69-0.958-0.939-0.575z">
   </path>
   <path
      d="M53.308 11.65c-0.172 0.134-0.23 1.073-0.192 4.081l0.057 3.909 0.517 0.058c0.517 0.058 0.517 0.058 0.249-0.479-0.345-0.651-0.364-2.472-0.038-3.123 0.211-0.402 0.192-0.575-0.019-1.016-0.249-0.498-0.268-2.357-0.019-3.181 0.096-0.307-0.211-0.46-0.556-0.249z">
   </path>
   <path
      d="M80.383 11.765c-1.054 0.479-1.82 1.725-1.82 2.97 0 0.287-0.096 0.613-0.211 0.728-0.153 0.153-0.153 0.326 0 0.594 0.115 0.211 0.211 0.632 0.211 0.92 0 0.786 0.843 2.089 1.61 2.453 1.035 0.498 2.453 0.402 3.181-0.192 0.709-0.613 1.15-1.399 1.15-2.127 0-0.287 0.115-0.747 0.249-1.016 0.192-0.383 0.211-0.575 0-0.958-0.134-0.268-0.249-0.747-0.249-1.054 0-1.782-2.357-3.104-4.12-2.319zM82.913 12.57c0.862 0.537 1.054 1.092 1.054 2.989 0 2.108-0.192 2.702-1.035 3.219-1.475 0.901-3.238 0.192-3.602-1.437-0.364-1.552-0.134-3.871 0.441-4.445 0.402-0.422 1.705-0.805 2.242-0.69 0.268 0.057 0.671 0.23 0.901 0.364z">
   </path>
   <path
      d="M80.766 12.628c-0.862 0.364-1.111 0.92-1.207 2.587-0.134 2.568 0.441 3.583 2.050 3.602 1.475 0.019 2.031-0.824 2.031-3.104 0-1.782-0.153-2.357-0.728-2.74-0.594-0.383-1.648-0.556-2.146-0.345zM82.491 13.317c0.345 0.326 0.479 0.671 0.479 1.226 0 0.422-0.096 0.824-0.192 0.881-0.134 0.077-0.134 0.23 0 0.479 0.345 0.632 0.23 1.686-0.23 2.108-0.537 0.479-1.514 0.498-1.954 0.019-0.46-0.498-0.594-1.571-0.249-2.031 0.249-0.307 0.249-0.422 0.019-0.766-0.364-0.575-0.153-1.552 0.46-2.012 0.632-0.517 1.111-0.479 1.667 0.096z">
   </path>
   <path
      d="M80.786 13.643c-0.172 0.23-0.307 0.69-0.287 1.016l0.019 0.575 0.23-0.671c0.134-0.364 0.441-0.766 0.671-0.881 0.651-0.326 0.69-0.46 0.153-0.46-0.287 0-0.613 0.172-0.786 0.422z">
   </path>
   <path
      d="M80.613 16.23c-0.077 0.058-0.134 0.345-0.134 0.613v0.498l0.287-0.556c0.153-0.287 0.287-0.575 0.287-0.613 0-0.115-0.307-0.096-0.441 0.058z">
   </path>
   <path
      d="M88.144 11.823c-0.862 0.441-1.456 1.36-1.629 2.491-0.077 0.517-0.23 1.035-0.326 1.15-0.134 0.172-0.134 0.326 0 0.479 0.096 0.134 0.249 0.671 0.326 1.188 0.115 0.728 0.326 1.15 0.862 1.725 0.671 0.709 0.805 0.766 1.935 0.824 1.495 0.096 2.261-0.307 2.855-1.456 0.46-0.92 0.46-0.977 0.096-0.977-0.153 0-0.402 0.287-0.556 0.651-0.364 0.862-1.092 1.322-2.108 1.341-1.763 0.038-2.414-0.939-2.414-3.641 0-2.587 0.651-3.526 2.51-3.526 0.632 0 0.901 0.115 1.437 0.652 0.364 0.364 0.651 0.786 0.651 0.939 0 0.287 0.709 0.575 0.843 0.345 0.153-0.23-0.939-1.629-1.533-1.974-0.92-0.537-2.165-0.613-2.951-0.211z">
   </path>
   <path
      d="M93.892 11.708c0 0.096 0.096 0.172 0.192 0.172 0.287 0 0.249 3.315-0.038 3.602-0.172 0.172-0.172 0.287 0 0.46 0.307 0.307 0.307 3.257 0 3.564-0.172 0.172-0.115 0.23 0.287 0.23h0.517l-0.038-4.081-0.058-4.062-0.422-0.019c-0.249-0.019-0.441 0.057-0.441 0.134z">
   </path>
   <path
      d="M95.483 11.631c-0.172 0.057-0.249 0.652-0.249 1.993v1.897h4.024v-1.897c0-1.399-0.058-1.916-0.249-1.993-0.402-0.153-0.709 0.115-0.517 0.441 0.115 0.153 0.192 0.862 0.192 1.571v1.303h-2.913l0.077-1.399c0.058-0.747 0.134-1.495 0.172-1.648 0.077-0.287-0.172-0.422-0.537-0.268z">
   </path>
   <path
      d="M99.966 11.65c-0.307 0.057-0.326 0.364-0.287 4.024l0.058 3.966 0.556 0.058c0.537 0.058 0.537 0.058 0.23-0.364-0.402-0.575-0.422-2.817-0.038-3.334 0.23-0.326 0.23-0.422 0-0.747-0.307-0.46-0.364-2.644-0.077-3.181 0.211-0.402 0.077-0.537-0.441-0.422z">
   </path>
   <path
      d="M55.492 12.206c0.345 0.69 0.345 2.549 0 3.047-0.192 0.249-0.211 0.441-0.077 0.594 0.364 0.441 0.422 2.644 0.096 3.296l-0.287 0.594h2.127c1.725 0 2.28-0.077 2.798-0.345 0.728-0.383 1.36-1.399 1.36-2.146 0-0.268 0.134-0.709 0.268-1.016 0.249-0.441 0.249-0.594 0-1.054-0.134-0.287-0.268-0.766-0.268-1.054 0-0.766-0.498-1.629-1.207-2.050-0.517-0.326-0.977-0.383-2.855-0.383h-2.242l0.287 0.517zM59.401 12.321c1.054 0.364 1.533 1.399 1.514 3.296 0 2.836-0.556 3.487-3.047 3.564l-1.437 0.038-0.057-3.564-0.038-3.583 1.188 0.019c0.671 0 1.514 0.096 1.878 0.23z">
   </path>
   <path
      d="M56.699 15.234c-0.019 1.533-0.038 2.97-0.038 3.2-0.019 0.402 0.077 0.441 1.035 0.498 1.878 0.096 2.587-0.479 2.893-2.319 0.249-1.61 0-2.817-0.728-3.545-0.575-0.575-0.709-0.613-1.878-0.613h-1.265l-0.019 2.778zM59.574 13.528c0.441 0.556 0.537 1.59 0.172 1.954-0.172 0.172-0.172 0.287 0 0.46 0.134 0.134 0.23 0.537 0.23 0.92 0 0.939-0.498 1.38-1.725 1.495l-0.958 0.096v-1.15c0-0.613 0.096-1.226 0.23-1.36 0.172-0.172 0.172-0.287 0-0.46-0.134-0.134-0.23-0.728-0.23-1.341v-1.111h0.939c0.805 0 1.016 0.077 1.341 0.498z">
   </path>
   <path
      d="M57.619 13.356c-0.211 0.192-0.153 1.552 0.057 1.686 0.115 0.077 0.192-0.192 0.192-0.652 0-0.766 0-0.786 0.728-0.805 0.632-0.019 0.651-0.038 0.23-0.172-0.632-0.192-1.054-0.23-1.207-0.057z">
   </path>
   <path
      d="M57.811 16.038c-0.23 0.383-0.364 1.974-0.153 1.974 0.115 0 0.211-0.326 0.211-0.728s0.096-0.824 0.211-0.939c0.134-0.134 0.134-0.249 0.019-0.326-0.115-0.057-0.249-0.057-0.287 0.019z">
   </path>
   <path
      d="M63.195 11.919c0.134 0.134 0.23 0.824 0.23 1.782s-0.096 1.648-0.23 1.782c-0.172 0.172-0.172 0.287 0 0.46 0.307 0.307 0.307 3.258 0 3.583-0.211 0.192-0.134 0.23 0.326 0.172l0.575-0.058 0.058-3.813 0.038-3.794 1.629 0.077c1.897 0.096 2.587 0.46 2.855 1.533 0.211 0.843-0.153 1.667-0.939 2.069-0.307 0.153-0.594 0.287-0.613 0.287s0.364 0.824 0.862 1.82c0.824 1.648 0.958 1.82 1.475 1.878 0.364 0.038 0.479 0 0.345-0.115-0.134-0.077-0.613-0.862-1.073-1.705l-0.843-1.552 0.517-0.402c1.035-0.766 1.226-2.606 0.326-3.411-0.786-0.728-1.226-0.824-3.507-0.824-1.763 0-2.204 0.057-2.031 0.23z">
   </path>
   <path
      d="M71.052 11.919c0.287 0.287 0.307 3.334 0.038 3.507-0.134 0.077-0.134 0.23 0 0.479 0.287 0.517 0.249 3.315-0.038 3.622-0.211 0.192-0.134 0.23 0.326 0.172l0.575-0.058 0.058-3.794 0.038-3.775h1.207c1.571 0 2.529 0.287 3.008 0.901 0.69 0.901 0.345 2.434-0.671 2.893-0.268 0.134-1.092 0.23-1.82 0.23h-1.303l-0.134 1.399c-0.172 1.897-0.115 2.127 0.575 2.204 0.46 0.058 0.537 0.019 0.345-0.172-0.153-0.153-0.249-0.766-0.249-1.552v-1.303h1.111c1.38 0 2.319-0.46 2.759-1.341 0.651-1.265 0.345-2.434-0.786-3.2-0.594-0.402-0.881-0.441-2.951-0.441-1.801 0-2.261 0.057-2.089 0.23z">
   </path>
   <path
      d="M43.497 12.378c0 0.153 0.096 0.23 0.192 0.172 0.115-0.057 0.192-0.192 0.192-0.307 0-0.096-0.077-0.172-0.192-0.172-0.096 0-0.192 0.134-0.192 0.307z">
   </path>
   <path
      d="M54.17 12.206c-0.077 0.057-0.115 0.766-0.096 1.571l0.019 1.456 0.134-1.245c0.057-0.69 0.192-1.399 0.268-1.59 0.153-0.326-0.077-0.46-0.326-0.192z">
   </path>
   <path
      d="M96.326 12.206c-0.077 0.057-0.115 0.652-0.115 1.284l0.038 1.169 0.134-0.958c0.077-0.537 0.192-1.111 0.268-1.303 0.153-0.326-0.077-0.46-0.326-0.192z">
   </path>
   <path
      d="M100.714 12.206c-0.058 0.057-0.096 0.766-0.077 1.571l0.038 1.456 0.058-1.245c0.038-0.671 0.172-1.341 0.268-1.456 0.192-0.249-0.058-0.556-0.287-0.326z">
   </path>
   <path
      d="M64.575 13.873c0 0.805 0 1.495 0 1.552 0 0.211 1.954 0.287 2.644 0.115 1.207-0.326 1.59-1.686 0.69-2.529-0.402-0.383-0.728-0.46-1.916-0.517l-1.418-0.077v1.456zM67.487 13.356c0.805 0.728 0.153 1.686-1.303 1.859l-0.996 0.115-0.058-0.824c-0.115-1.399-0.077-1.475 1.016-1.475 0.651 0 1.111 0.115 1.341 0.326z">
   </path>
   <path
      d="M65.399 13.528c-0.038 0.134-0.058 0.479 0 0.786 0.077 0.517 0.077 0.517 0.115-0.096 0.019-0.594 0.058-0.613 0.843-0.613 0.613-0.019 0.728-0.057 0.479-0.192-0.402-0.249-1.322-0.172-1.437 0.115z">
   </path>
   <path
      d="M72.412 13.164c-0.038 0.402-0.058 1.169-0.019 1.705l0.077 0.958 1.456-0.019c1.322-0.038 1.495-0.096 1.897-0.556 0.613-0.709 0.594-1.629-0.058-2.242-0.402-0.383-0.728-0.46-1.878-0.517l-1.418-0.077-0.058 0.747zM75.344 13.356c0.345 0.307 0.441 0.939 0.192 1.322s-0.958 0.652-1.744 0.652h-0.786v-2.299h0.996c0.651 0 1.111 0.115 1.341 0.326z">
   </path>
   <path
      d="M73.236 14.122c0.019 0.843 0.038 0.862 0.096 0.192 0.077-0.69 0.096-0.709 0.881-0.709 0.594 0 0.728-0.057 0.517-0.192-0.153-0.096-0.575-0.192-0.901-0.192-0.632 0-0.632 0-0.594 0.901z">
   </path>
   <path
      d="M88.182 12.838c-0.364 0.345-0.46 0.69-0.69 2.28-0.134 0.92 0.23 2.951 0.594 3.315 0.498 0.479 1.629 0.651 2.376 0.345 0.881-0.364 1.207-1.533 0.422-1.533-0.172 0-0.249 0.115-0.172 0.287 0.134 0.383-0.594 0.862-1.36 0.862-0.441 0-0.709-0.134-0.92-0.46-0.345-0.517-0.441-1.763-0.153-2.050 0.153-0.153 0.134-0.345-0.038-0.69-0.479-0.901 0.058-2.069 1.035-2.261 0.517-0.096 1.61 0.402 1.456 0.671-0.172 0.287 0.077 0.575 0.383 0.441 0.422-0.153 0.345-0.594-0.192-1.111-0.613-0.632-2.108-0.671-2.74-0.096z">
   </path>
   <path
      d="M41.466 14.793c-0.383 1.188-0.747 2.28-0.805 2.395-0.057 0.192 0.345 0.249 1.59 0.249 1.514 0 1.648-0.038 1.533-0.345-0.057-0.172-0.422-1.245-0.786-2.395-0.364-1.131-0.709-2.050-0.747-2.050s-0.383 0.977-0.786 2.146zM42.788 15.425c0.153 0.517 0.345 1.111 0.422 1.284 0.115 0.307 0 0.345-0.939 0.345-0.594 0-1.073-0.038-1.073-0.058 0-0.077 0.651-1.993 0.862-2.606 0.153-0.402 0.402-0.057 0.728 1.035z">
   </path>
   <path
      d="M41.983 15.77c-0.134 0.402-0.192 0.786-0.134 0.843 0.153 0.153 0.537-0.901 0.441-1.265-0.038-0.172-0.172 0.019-0.307 0.422z">
   </path>
   <path
      d="M48.479 16.153v3.583h0.479c0.441 0 0.46-0.038 0.287-0.383-0.115-0.23-0.172-1.265-0.153-2.529 0.038-1.61 0.115-2.069 0.249-1.763 0.115 0.211 0.69 1.169 1.303 2.146 0.613 0.958 1.131 1.916 1.15 2.146 0.019 0.268 0.153 0.383 0.46 0.383 0.249 0 0.441-0.096 0.441-0.192 0-0.153-3.871-6.592-4.139-6.879-0.038-0.038-0.077 1.533-0.077 3.487z">
   </path>
   <path
      d="M88.738 13.471c-0.249 0.307-0.498 1.475-0.326 1.475 0.077 0 0.23-0.268 0.345-0.575 0.115-0.364 0.364-0.613 0.651-0.69 0.249-0.057 0.46-0.192 0.46-0.287 0-0.268-0.881-0.211-1.131 0.077z">
   </path>
   <path
      d="M61.911 14.486c0 0.211 0.057 0.268 0.115 0.115 0.057-0.134 0.038-0.307-0.019-0.364-0.057-0.077-0.115 0.038-0.096 0.249z">
   </path>
   <path
      d="M69.691 14.314c-0.077 0.057-0.134 0.268-0.134 0.46s-0.268 0.652-0.594 1.035c-0.345 0.383-0.556 0.747-0.479 0.805 0.23 0.23 1.073-0.786 1.284-1.533 0.192-0.747 0.172-1.016-0.077-0.766z">
   </path>
   <path
      d="M77.451 14.869c-0.23 0.786-0.728 1.38-1.571 1.801-0.498 0.268-0.805 0.326-1.954 0.364l-0.728 0.019 0.038 1.092 0.038 1.111 0.058-0.977 0.077-0.977 1.38-0.115c0.881-0.077 1.533-0.249 1.859-0.479 0.613-0.441 1.207-1.61 1.111-2.184-0.058-0.364-0.115-0.287-0.307 0.345z">
   </path>
   <path
      d="M91.21 14.371c-0.23 0.153-0.172 0.192 0.249 0.192 0.307 0 0.498-0.077 0.422-0.192-0.153-0.23-0.307-0.23-0.671 0z">
   </path>
   <path
      d="M92.551 14.371c-0.23 0.153-0.172 0.192 0.249 0.192 0.307 0 0.498-0.077 0.422-0.192-0.153-0.23-0.307-0.23-0.671 0z">
   </path>
   <path
      d="M84.905 14.678c0 0.211 0.058 0.268 0.115 0.115 0.058-0.134 0.038-0.307-0.019-0.364-0.058-0.077-0.115 0.038-0.096 0.249z">
   </path>
   <path
      d="M96.23 15.847l-1.016 0.077 0.115 3.717 0.517 0.058c0.517 0.058 0.517 0.058 0.249-0.479-0.172-0.307-0.287-1.054-0.287-1.744v-1.188h2.874v1.495c0 0.901-0.096 1.59-0.23 1.725-0.172 0.172-0.115 0.23 0.287 0.23h0.517v-4.024l-0.996 0.038c-0.556 0.019-1.475 0.057-2.031 0.096z">
   </path>
   <path
      d="M54.247 16.268c-0.115 0.211-0.192 0.958-0.172 1.686l0.019 1.303 0.115-1.265c0.057-0.69 0.23-1.399 0.364-1.571 0.153-0.172 0.172-0.326 0.057-0.402s-0.287 0.038-0.383 0.249z">
   </path>
   <path
      d="M62.122 16.23c-0.096 0.192-0.23 0.728-0.287 1.188-0.23 1.82-1.303 2.529-4.043 2.721l-1.935 0.115h2.050c2.357 0.019 3.047-0.23 3.737-1.265 0.249-0.364 0.441-0.92 0.441-1.245s0.134-0.824 0.268-1.111c0.153-0.287 0.211-0.575 0.115-0.632s-0.249 0.038-0.345 0.23z">
   </path>
   <path
      d="M85.135 16.153c-0.115 0.115-0.249 0.651-0.326 1.15-0.192 1.59-1.092 2.453-2.855 2.817l-0.805 0.153 0.862 0.019c1.667 0.038 2.778-0.901 3.047-2.606 0.077-0.556 0.249-1.131 0.383-1.284s0.153-0.326 0.058-0.383c-0.115-0.057-0.268 0-0.364 0.134z">
   </path>
   <path
      d="M88.565 16.134c-0.287 0.287-0.307 1.245-0.038 1.399 0.115 0.058 0.134-0.019 0.077-0.192-0.077-0.153 0.019-0.498 0.192-0.766 0.326-0.479 0.134-0.805-0.23-0.441z">
   </path>
   <path
      d="M45.068 16.479c0 0.268 0.038 0.364 0.096 0.23 0.038-0.115 0.038-0.345 0-0.479-0.057-0.115-0.096-0.019-0.096 0.249z">
   </path>
   <path
      d="M49.495 17.629c0 0.901 0.038 1.265 0.077 0.805 0.038-0.441 0.038-1.169 0-1.629-0.038-0.441-0.077-0.077-0.077 0.824z">
   </path>
   <path
      d="M64.517 17.284c-0.172 2.012-0.096 2.338 0.556 2.414 0.441 0.058 0.517 0.019 0.326-0.172-0.153-0.153-0.249-0.786-0.249-1.648v-1.399h0.537c0.479 0 0.632 0.153 1.169 1.226 0.345 0.69 0.632 1.418 0.651 1.629 0.019 0.287 0.153 0.402 0.46 0.402 0.249 0 0.441-0.077 0.441-0.192 0-0.096-0.364-0.92-0.805-1.82l-0.805-1.629h-2.184l-0.096 1.188z">
   </path>
   <path
      d="M100.733 16.23c-0.077 0.058-0.115 0.766-0.096 1.571l0.038 1.456 0.058-1.245c0.038-0.69 0.153-1.322 0.268-1.437 0.096-0.096 0.172-0.249 0.172-0.326 0-0.192-0.268-0.211-0.441-0.019z">
   </path>
   <path d="M96.23 17.859l0.038 1.207 0.058-1.092 0.077-1.092 0.996-0.077 0.996-0.058-2.204-0.077 0.038 1.188z"></path>
   <path
      d="M65.38 18.050l0.038 1.207 0.058-1.092c0.058-0.824 0.153-1.111 0.402-1.169 0.23-0.058 0.211-0.096-0.096-0.115-0.422-0.019-0.441 0.038-0.402 1.169z">
   </path>
   <path
      d="M40.182 18.663c-0.326 0.958-0.287 1.073 0.402 1.073 0.383 0 0.422-0.058 0.23-0.268-0.115-0.153-0.192-0.479-0.153-0.69 0.057-0.383 0.192-0.422 1.552-0.441 1.399-0.038 1.495-0.019 1.61 0.402 0.057 0.23 0 0.556-0.134 0.709-0.192 0.249-0.153 0.287 0.23 0.287 0.69 0 0.728-0.115 0.402-1.073l-0.287-0.843h-3.564l-0.287 0.843z">
   </path>
   <path
      d="M92.34 18.529c-0.537 0.843-1.36 1.36-2.51 1.571-0.805 0.172-0.805 0.172-0.153 0.192 1.495 0.038 2.434-0.517 3.315-1.954 0.537-0.824-0.096-0.651-0.651 0.192z">
   </path>
   <path
      d="M40.949 18.874c-0.077 0.153-0.038 0.326 0.038 0.383 0.096 0.058 0.211-0.038 0.268-0.192 0.077-0.172 0.479-0.287 1.226-0.345l1.111-0.058-1.265-0.038c-0.977-0.038-1.303 0.038-1.38 0.249z">
   </path>
   <path
      d="M39.186 20.12c-0.057 0.096 0.057 0.192 0.268 0.192s0.441-0.096 0.498-0.192c0.057-0.115-0.057-0.192-0.268-0.192s-0.441 0.077-0.498 0.192z">
   </path>
   <path
      d="M40.719 20.12c-0.057 0.096 0.057 0.192 0.268 0.192 0.23 0 0.402-0.096 0.402-0.192 0-0.115-0.115-0.192-0.268-0.192s-0.345 0.077-0.402 0.192z">
   </path>
   <path
      d="M44.168 20.12c-0.057 0.096 0.057 0.192 0.268 0.192s0.441-0.096 0.498-0.192c0.057-0.115-0.057-0.192-0.268-0.192s-0.441 0.077-0.498 0.192z">
   </path>
   <path
      d="M45.701 20.12c-0.077 0.115 0.096 0.192 0.383 0.192s0.46-0.077 0.383-0.192c-0.057-0.115-0.23-0.192-0.383-0.192s-0.326 0.077-0.383 0.192z">
   </path>
   <path
      d="M47.713 20.12c-0.23 0.153-0.172 0.192 0.249 0.192 0.287 0 0.517-0.096 0.517-0.192 0-0.249-0.383-0.249-0.766 0z">
   </path>
   <path
      d="M49.341 20.12c-0.057 0.096 0.057 0.192 0.287 0.192s0.345-0.096 0.287-0.192c-0.057-0.115-0.192-0.192-0.287-0.192s-0.23 0.077-0.287 0.192z">
   </path>
   <path
      d="M52.407 20.12c-0.077 0.115 0.096 0.192 0.364 0.192s0.498-0.096 0.498-0.192c0-0.115-0.172-0.192-0.364-0.192-0.211 0-0.441 0.077-0.498 0.192z">
   </path>
   <path
      d="M53.94 20.12c-0.057 0.096 0.057 0.192 0.287 0.192s0.345-0.096 0.287-0.192c-0.057-0.115-0.192-0.192-0.287-0.192s-0.23 0.077-0.287 0.192z">
   </path>
   <path
      d="M63.713 20.12c-0.077 0.115 0.096 0.192 0.364 0.192s0.498-0.096 0.498-0.192c0-0.115-0.172-0.192-0.364-0.192-0.211 0-0.441 0.077-0.498 0.192z">
   </path>
   <path
      d="M65.341 20.12c-0.23 0.153-0.211 0.192 0.153 0.192 0.23 0 0.422-0.096 0.422-0.192 0-0.249-0.211-0.249-0.575 0z">
   </path>
   <path
      d="M68.216 20.12c-0.23 0.153-0.211 0.192 0.153 0.192 0.23 0 0.422-0.096 0.422-0.192 0-0.249-0.211-0.249-0.575 0z">
   </path>
   <path
      d="M69.749 20.12c-0.23 0.153-0.211 0.192 0.153 0.192 0.23 0 0.422-0.096 0.422-0.192 0-0.249-0.211-0.249-0.575 0z">
   </path>
   <path
      d="M71.569 20.12c-0.077 0.115 0.096 0.192 0.364 0.192s0.498-0.096 0.498-0.192c0-0.115-0.172-0.192-0.364-0.192-0.211 0-0.441 0.077-0.498 0.192z">
   </path>
   <path
      d="M73.198 20.12c-0.23 0.153-0.211 0.192 0.153 0.192 0.23 0 0.422-0.096 0.422-0.192 0-0.249-0.211-0.249-0.575 0z">
   </path>
   <path
      d="M94.563 20.12c-0.077 0.115 0.096 0.192 0.364 0.192s0.498-0.096 0.498-0.192c0-0.115-0.172-0.192-0.364-0.192-0.211 0-0.441 0.077-0.498 0.192z">
   </path>
   <path
      d="M96.096 20.12c-0.058 0.096 0.058 0.192 0.287 0.192s0.345-0.096 0.287-0.192c-0.058-0.115-0.192-0.192-0.287-0.192s-0.23 0.077-0.287 0.192z">
   </path>
   <path
      d="M98.97 20.12c-0.058 0.096 0.058 0.192 0.268 0.192 0.23 0 0.402-0.096 0.402-0.192 0-0.115-0.115-0.192-0.268-0.192s-0.345 0.077-0.402 0.192z">
   </path>
   <path
      d="M100.503 20.12c-0.058 0.096 0.058 0.192 0.287 0.192s0.345-0.096 0.287-0.192c-0.058-0.115-0.192-0.192-0.287-0.192s-0.23 0.077-0.287 0.192z">
   </path>
</svg>