<svg xmlns="http://www.w3.org/2000/svg" width="50" height="50" viewBox="10 5 15 25" fill="gray"><path d="M18.571 8.857c-.309.171-.926 1.051-1.074 1.509-.069.251-.046.263.789.263h.869v-.971c0-1.051-.034-1.097-.583-.8zM19.725 9.714v.914h1.371l-.114-.297c-.251-.651-.914-1.531-1.166-1.531-.046 0-.091.411-.091.914zM21.005 8.983c.023.057.217.446.423.869l.377.777h.56c.309 0 .56-.046.56-.091 0-.149-1.051-1.109-1.531-1.394-.24-.149-.423-.217-.389-.16zM16.982 9.337c-.4.263-1.029.857-1.154 1.086-.103.183-.057.206.377.206h.491l.343-.743c.194-.411.32-.743.286-.743s-.194.08-.343.194zM15.165 11.737c-.069.24-.126.606-.126.8v.377h.686c.64 0 .686-.011.686-.274 0-.149.034-.503.069-.8l.08-.526h-1.28l-.114.423zM17.165 11.566a4.538 4.538 0 00-.069.8v.549h2.057v-1.6h-.96c-.891 0-.96.011-1.029.251zM19.771 12.08l.011.777 1.657.069v-.377a6.9 6.9 0 00-.069-.811l-.08-.423h-1.543l.023.766zM22.022 11.909c.046.331.091.697.091.811.011.183.103.206.789.171l.766-.034-.034-.4a5.732 5.732 0 00-.149-.777c-.114-.366-.126-.366-.834-.366h-.709l.08.594zM15.097 13.909a3.6 3.6 0 00.263.823c.183.377.24.411.754.446l.549.034-.069-.377c-.034-.206-.091-.594-.137-.869l-.08-.48h-1.36l.08.423zM17.097 13.771c0 .149.057.537.126.857l.126.571h1.806v-1.714h-1.029c-1.017 0-1.029 0-1.029.286zM19.771 13.646c-.034.08-.046.457-.023.823l.034.674.663.034c.743.034.789 0 .937-1.097l.08-.594h-.811c-.583 0-.834.046-.88.16zM22.079 13.623c-.023.08-.091.469-.149.857l-.103.72h1.314l.229-.629c.389-1.04.366-1.086-.503-1.086-.503 0-.766.046-.789.137zM16.354 16.114c.183.194.503.446.709.571l.377.217-.286-.56c-.263-.526-.32-.571-.709-.571h-.423l.331.343zM17.668 15.897c0 .24.469.891.8 1.131.571.411.686.32.686-.514v-.743h-.743c-.48 0-.743.046-.743.126zM19.805 15.851c-.114.103-.103 1.291.011 1.291.206 0 1.051-1.051 1.051-1.303 0-.091-.971-.08-1.063.011zM21.588 15.909c-.057.08-.217.377-.366.651l-.274.503.446-.251c.446-.251 1.189-.869 1.189-.983 0-.126-.891-.046-.994.08z"/><path d="M12.639 16.789c-.411.114-1.029.32-1.371.457-.4.16-.994.286-1.646.32l-1.006.069-.16.377c-.217.526-.503 2.229-.503 3.029 0 1.497.469 1.794 1.783 1.131.594-.297.789-.343 1.703-.343 1.291 0 2.126.206 3.371.846 2.091 1.074 2.994 1.2 4.149.629 1.737-.88 3.943-2.709 4.823-4.023.686-1.006.354-2.023-.663-2.023-.389 0-1.36.503-1.726.903l-.331.354-.206-.343c-.274-.446-.651-.526-1.817-.343-2.023.297-1.943.309-2.571-.217-1.211-1.006-2.331-1.246-3.829-.823zm2.035.411c.331.103.926.434 1.349.754.423.309.903.594 1.074.629.16.034.743-.011 1.28-.114 1.28-.24 2.034-.24 2.034-.011 0 .834-2.583 1.554-4.377 1.211-.743-.137-1.109-.034-1.109.32 0 .423.274.491 2.034.503 2.32.023 2.846-.16 4.206-1.417.537-.503 1.131-.983 1.326-1.086.446-.229 1.051-.171 1.097.103.08.434-.114.766-1.063 1.84-.754.834-1.269 1.28-2.263 1.943-1.806 1.211-2.183 1.36-2.96 1.2-.331-.069-1.246-.423-2.034-.789-1.771-.834-2.046-.903-3.566-.994l-1.223-.069-.88.423c-.674.32-.903.389-.983.274-.217-.343-.08-2.171.251-3.429l.126-.434h.846c.594 0 .994-.069 1.394-.24.503-.217 2.434-.766 2.731-.789.069 0 .389.08.709.171zM9.245 33.429c0 .309.023.434.046.251.023-.171.091-.309.149-.309s.126.137.149.309c.046.297.046.297.069-.057.011-.251-.046-.366-.149-.366-.091 0-.194-.091-.217-.206-.034-.103-.057.057-.046.377zM14.948 33.429c0 .309.023.491.057.4s.149-.274.251-.4c.171-.206.171-.217-.011-.08-.16.137-.194.114-.24-.171-.023-.183-.046-.069-.057.251zM10.571 33.154c-.091.229.046.709.217.743.08.011.091 0 .023-.034-.171-.08-.137-.491.046-.491.091 0 .183.114.206.251s.103.263.183.274c.08.011.091 0 .023-.034-.137-.069-.149-.457-.011-.514.057-.023.034-.103-.057-.183s-.16-.091-.16-.023c0 .16-.309.149-.366-.023-.034-.091-.069-.08-.103.034zM13.188 33.177c-.08.217.069.686.229.72.08.011.091 0 .023-.034-.137-.069-.149-.457-.011-.514.057-.023.034-.091-.046-.171-.114-.103-.16-.103-.194 0zM19.497 33.086c-.011.057-.011.24 0 .389s-.046.32-.137.366c-.103.069-.034.103.194.103.194 0 .286-.046.206-.091-.069-.046-.149-.263-.183-.48-.023-.217-.057-.354-.08-.286zM20.011 33.143c-.046.069.011.08.126.034.149-.057.183-.034.126.114-.034.103-.023.217.046.251.16.103-.011.309-.206.24-.091-.034-.126-.011-.091.046.103.16.366.137.434-.034.16-.434-.217-1.006-.434-.651zM20.685 33.2c-.046.091-.011.251.069.343.069.091.103.217.057.286-.034.057-.046.114-.011.114.114 0 .377-.629.331-.777-.069-.194-.366-.171-.446.034zm.32.114c0 .057-.057.126-.126.149s-.126-.046-.126-.149.057-.171.126-.149.126.091.126.149zM21.371 33.2c-.046.091-.011.251.069.343.069.091.103.217.057.286-.034.057-.046.114-.011.114.114 0 .377-.629.331-.777-.069-.194-.366-.171-.446.034zm.32.114c0 .057-.057.126-.126.149s-.126-.046-.126-.149.057-.171.126-.149.126.091.126.149zM22.239 33.086c-.011.057-.011.24 0 .389s-.046.32-.137.366c-.103.069-.034.103.194.103.194 0 .286-.046.206-.091-.069-.046-.149-.263-.183-.48-.023-.217-.057-.354-.08-.286zM22.777 33.109c-.034.057-.046.24-.034.434.011.263.069.343.24.343.126 0 .229-.069.217-.149a3.664 3.664 0 01-.023-.423c-.023-.263-.286-.4-.4-.206zm.262.148a.115.115 0 01-.114.114.123.123 0 01-.114-.114c0-.069.057-.114.114-.114.069 0 .114.046.114.114zm.023.4c0 .057-.057.126-.126.149s-.126-.046-.126-.149.057-.171.126-.149.126.091.126.149zM23.439 33.143c-.034.057 0 .08.091.046.274-.103.32.137.08.354-.309.286-.286.4.091.389.24 0 .263-.023.103-.08-.171-.08-.183-.114-.034-.309.08-.114.137-.286.103-.366-.069-.171-.331-.194-.434-.034zM24.114 33.2c-.046.091-.011.251.069.343.069.091.103.217.057.286-.034.057-.046.114-.011.114.114 0 .377-.629.331-.777-.069-.194-.366-.171-.446.034zm.32.114c0 .057-.057.126-.126.149s-.126-.046-.126-.149.057-.171.126-.149.126.091.126.149zM24.811 33.143c-.034.057 0 .08.091.046.274-.103.32.137.08.354-.309.286-.286.4.091.389.24 0 .263-.023.103-.08-.171-.08-.183-.114-.034-.309.08-.114.137-.286.103-.366-.069-.171-.331-.194-.434-.034zM25.554 33.303c-.171.331-.091.64.171.64s.354-.354.137-.514c-.137-.103-.16-.16-.057-.263.08-.08.091-.137.023-.137s-.183.126-.274.274zm.251.354c0 .057-.057.126-.126.149s-.126-.046-.126-.149.057-.171.126-.149.126.091.126.149zM8.639 33.451c0 .114.046.16.091.091s.126-.149.183-.206c.057-.046.023-.08-.08-.08a.192.192 0 00-.194.194zM9.908 33.566c-.011.309.034.377.217.377s.229-.069.217-.377c-.023-.343-.023-.343-.069-.057-.069.411-.229.411-.297 0-.046-.286-.046-.286-.069.057zM11.577 33.326c-.149.149-.08.274.16.274.126 0 .217-.057.194-.137-.057-.16-.251-.24-.354-.137zM12.194 33.623c.023.32.023.331.069.091.034-.16.114-.32.194-.366.08-.057.057-.091-.069-.091-.16 0-.206.091-.194.366zM12.639 33.451c0 .114.046.16.091.091s.126-.149.183-.206c.057-.046.023-.08-.08-.08a.192.192 0 00-.194.194zM13.714 33.429c-.091.24.023.514.229.514.194 0 .32-.274.229-.514-.046-.091-.149-.171-.229-.171-.091 0-.194.08-.229.171zm.354.171a.23.23 0 01-.137.194c-.091.034-.149-.046-.149-.194s.057-.229.149-.206c.069.034.137.126.137.206zM14.399 33.429c-.091.229.023.514.206.503.114 0 .114-.023.011-.069-.08-.023-.149-.149-.149-.263s.069-.24.149-.263c.103-.046.103-.069-.011-.069-.08-.011-.171.069-.206.16zM15.999 33.429c-.091.229.023.514.206.503.114 0 .114-.023.011-.069-.08-.023-.149-.149-.149-.263s.069-.24.149-.263c.103-.046.103-.069-.011-.069-.08-.011-.171.069-.206.16zM16.571 33.429c-.091.24.023.514.229.514.194 0 .32-.274.229-.514-.046-.091-.149-.171-.229-.171-.091 0-.194.08-.229.171zm.354.171a.23.23 0 01-.137.194c-.091.034-.149-.046-.149-.194s.057-.229.149-.206c.069.034.137.126.137.206zM17.222 33.634c.023.354.023.354.069.046.023-.171.091-.309.149-.309s.126.137.149.309l.046.32.023-.32c0-.171.057-.309.114-.309s.137.137.16.309c.046.309.046.309.069-.046.011-.331-.011-.354-.389-.354s-.4.023-.389.354zM8.777 33.771c-.126.137-.114.171.034.171.091 0 .171-.08.171-.171 0-.206-.023-.206-.206 0zM12.777 33.771c-.126.137-.114.171.034.171.091 0 .171-.08.171-.171 0-.206-.023-.206-.206 0zM15.154 33.703c0 .057.057.149.114.183.069.034.114.023.114-.046a.234.234 0 00-.114-.183c-.057-.034-.114-.023-.114.046zM11.588 33.851a.315.315 0 00.263.069c.091-.034.034-.08-.114-.126-.194-.046-.24-.034-.149.057z"/></svg>