<!-- Generated by IcoMoon.io -->
<svg version="1.1" xmlns="http://www.w3.org/2000/svg" width="102" height="102" viewBox="0 0 1024 1024">
   <title></title>
   <g id="icomoon-ignore">
   </g>
   <path fill="#000"
      d="M677.557 44.149c-42.922 15.329-99.947 66.836-155.746 141.030-14.716 19.622-27.593 35.564-29.432 35.564s-25.14-19.008-52.733-42.922c-87.684-74.807-171.689-107.919-210.319-83.392-24.527 16.556-34.951 48.441-30.046 91.976 4.292 40.469 26.366 114.050 49.054 165.557 8.584 19.008 15.329 36.79 15.329 39.856 0 11.037-19.622 12.263-42.922 3.066-20.235-7.971-26.366-8.584-41.083-1.226-9.198 4.292-21.461 17.169-26.366 27.593-6.132 12.877-26.366 31.272-58.251 52.12-69.289 45.988-86.457 77.26-64.383 118.343 18.395 34.338 109.145 66.836 209.705 75.42 28.206 2.453 50.28 7.358 49.667 10.424 0 3.679-5.519 34.951-11.037 69.902-14.103 82.165-10.424 149.001 10.424 185.178 17.782 32.498 36.79 38.63 79.713 25.753 25.753-7.358 40.469-18.395 80.939-59.478 27.593-27.593 60.704-65.61 73.581-85.231 19.008-27.593 25.753-33.111 32.498-28.206 4.292 3.679 7.971 15.943 7.971 26.366 0 28.206 21.461 46.601 54.572 46.601 19.008 0 34.338 5.519 58.865 21.461 119.569 76.034 186.405 36.177 159.425-95.655-5.519-28.206-19.622-74.194-31.885-103.013-11.65-28.819-22.074-57.638-22.074-63.77-1.226-8.584 9.198-14.716 43.535-26.366 116.503-39.243 197.442-101.174 197.442-151.454 0-47.214-80.939-87.684-205.413-102.4-33.725-3.679-63.77-9.198-66.223-11.65-3.066-3.066 6.132-14.103 19.622-24.527 19.622-15.943 25.14-23.914 25.14-39.243 0-10.424-4.905-23.914-10.424-30.659-8.584-8.584-11.65-26.98-14.716-74.194-4.292-72.968-14.716-98.721-45.375-111.598-23.914-9.811-24.527-9.811-49.054-1.226zM725.998 58.251c15.943 15.943 23.914 58.251 19.622 103.626-3.679 38.017-6.132 44.762-23.301 58.865-22.074 18.395-25.753 47.828-8.584 66.223 7.971 9.198 8.584 15.329 4.292 28.206-6.132 15.943-7.358 15.943-67.449 15.943h-60.704l-37.404-41.083c-20.848-22.687-37.404-43.535-37.404-46.601 0-8.584 46.601-74.807 82.778-116.503 36.177-43.535 83.392-77.873 104.853-77.873 7.358 0 18.395 4.292 23.301 9.198zM331.114 125.701c20.848 12.877 61.317 45.375 90.75 73.581l52.733 50.28-29.432 51.507c-16.556 28.206-30.659 52.733-31.885 53.959-3.066 3.066-95.655 25.14-107.305 25.14-15.943 0-72.354-130.606-85.844-198.668-6.132-32.498 1.226-73.581 14.716-79.713 18.395-8.584 60.091 1.84 96.268 23.914zM545.725 332.34c0 2.453-9.811 6.132-21.461 7.971s-31.272 4.292-42.922 6.132c-26.98 4.292-27.593-3.066-2.453-42.922l19.008-30.046 23.914 26.98c12.877 15.329 23.914 29.432 23.914 31.885zM703.923 369.131c-1.84 4.292-7.971 22.687-13.49 39.856-6.132 17.782-11.65 32.498-12.877 32.498-4.292 0-52.12-64.996-52.12-71.128 0-3.066 18.395-6.132 40.469-7.358 31.272-1.226 39.856 0.613 38.017 6.132zM861.509 370.97c70.515 11.037 93.202 17.169 117.729 29.432 51.507 26.98 33.725 71.128-45.988 113.437-36.177 19.622-152.68 62.544-168.623 62.544-8.584 0-59.478-82.165-59.478-96.268 0-11.65 23.914-92.589 31.272-107.919 7.358-13.49 47.828-13.49 125.087-1.226zM596.005 391.818c11.65 13.49 31.272 39.856 44.149 58.251l23.914 34.338-26.366 60.091c-14.716 32.498-30.659 62.544-34.951 66.223s-28.206 8.584-52.733 11.037c-23.914 2.453-52.733 5.519-62.544 7.358-17.782 2.453-21.461-0.613-60.704-53.959-47.828-64.996-47.214-63.157-11.65-137.351 20.848-42.922 25.753-48.441 44.762-53.346s79.099-14.103 105.466-15.943c5.519 0 19.622 10.424 30.659 23.301zM375.875 436.58c-8.584 21.461-16.556 39.856-17.169 40.469-2.453 2.453-32.498-43.535-37.404-57.025-3.066-7.971 28.206-19.622 56.412-20.848l13.49-0.613-15.329 38.017zM309.653 464.172c15.329 26.366 27.593 54.572 26.98 63.157 0 8.584-7.358 36.177-16.556 61.317l-16.556 45.988-61.317-1.226c-126.314-3.066-205.413-31.885-205.413-75.42 0-23.301 24.527-47.214 78.486-75.42 41.083-21.461 43.535-22.074 61.317-13.49 25.753 13.49 49.054 6.132 64.383-19.622 9.811-17.169 22.074-27.593 39.243-31.885 0.613-0.613 14.103 20.848 29.432 46.601zM705.15 551.856c11.037 17.169 17.782 33.111 15.329 35.564-4.905 4.905-66.223 19.622-69.289 16.556-1.226-1.226 4.905-17.169 13.49-35.564 8.584-17.782 15.943-36.177 15.943-39.856 0-12.263 4.292-8.584 24.527 23.301zM392.431 591.713c13.49 18.395 24.527 36.177 24.527 39.856s-16.556 6.132-40.469 6.132c-30.046 0-39.856-1.84-38.017-7.971 1.84-3.679 7.971-22.074 14.103-39.856 6.745-17.169 12.263-31.885 13.49-31.885 0.613 0 12.877 15.329 26.366 33.725zM771.372 672.651c64.383 139.19 69.902 228.714 14.103 228.714-19.622 0-68.675-23.301-101.787-47.214-21.461-15.943-25.14-22.074-25.14-41.083 0-31.272-19.008-49.667-50.893-48.441-41.083 1.84-42.309-8.584-9.811-68.062 30.659-56.412 23.301-51.507 98.108-69.902 48.441-12.263 48.441-12.263 75.42 45.988zM565.959 689.207c-9.198 19.008-18.395 34.338-20.848 34.338-1.84 0-15.329-13.49-28.819-30.046l-25.753-30.659 35.564-3.679c19.008-1.84 39.243-4.292 44.149-5.519 14.103-2.453 14.103-1.226-4.292 35.564zM490.539 711.281l38.017 43.535-26.366 38.017c-89.523 129.993-155.133 178.434-190.697 141.030-12.877-13.49-14.103-20.235-13.49-71.128 0-58.251 4.292-98.108 15.943-145.322 12.263-50.28 10.424-49.054 77.873-49.054h60.091l38.63 42.922z">
   </path>
   <path fill="#000"
      d="M475.823 435.966c-50.28 39.243-43.535 110.371 12.877 135.511 84.005 37.404 152.68-66.223 85.231-128.153-18.395-17.169-26.366-20.235-52.12-20.235-20.848 0-34.338 3.679-45.988 12.877z">
   </path>
   <path fill="#000"
      d="M1315.871 372.81c-1.226 2.453-0.613 8.584 2.453 12.877 6.745 11.65-21.461 93.202-37.404 106.079-7.971 6.745-11.037 14.716-9.198 22.074 3.679 11.65-22.687 95.042-34.338 109.758-4.905 6.132-2.453 7.971 9.198 7.971 14.716 0 17.782-6.132 58.251-128.153 34.951-105.466 41.083-129.38 33.725-131.832-12.263-4.905-19.008-4.292-22.687 1.226z">
   </path>
   <path fill="#000"
      d="M1357.566 376.489c-1.84 5.519-1.226 13.49 2.453 17.782 6.745 8.584 19.008 44.149 23.301 69.289 1.84 9.811 5.519 20.235 7.971 23.914 6.132 7.358 18.395 44.762 22.687 66.836 1.226 9.198 7.358 29.432 13.49 45.375 9.198 24.527 13.49 29.432 28.819 30.659 14.103 1.84 16.556 0.613 11.037-6.132-11.65-14.103-39.243-99.334-36.79-110.371 1.84-6.132-0.613-13.49-5.519-15.943-11.037-6.132-45.988-98.108-44.149-114.663 2.453-14.716-17.782-20.235-23.301-6.745z">
   </path>
   <path fill="#000"
      d="M1511.473 378.328c9.811 22.687 11.037 93.202 1.84 107.919-7.358 11.037-7.358 15.943-0.613 28.819 11.65 22.687 10.424 91.363-2.453 105.466-9.198 10.424-8.584 11.037 9.198 11.037h19.622v-128.153c0-110.984-1.226-128.766-9.811-131.832-16.556-6.132-22.687-4.292-17.782 6.745z">
   </path>
   <path fill="#000"
      d="M1554.395 374.036c-3.679 6.132 121.408 217.063 133.059 224.422 2.453 1.84 4.905-47.828 4.905-109.758 0-115.89-1.226-120.795-23.301-120.795-2.453 0-3.679 36.79-2.453 80.939l1.84 81.552-38.017-58.251c-20.848-31.885-41.696-68.062-45.988-79.713-7.358-21.461-22.074-30.659-30.046-18.395z">
   </path>
   <path fill="#000"
      d="M1705.849 372.81c-5.519 4.292-7.358 34.338-6.132 130.606l1.84 125.087 16.556 1.84c16.556 1.84 16.556 1.84 7.971-15.329-11.037-20.848-11.65-79.099-1.226-99.947 6.745-12.877 6.132-18.395-0.613-32.498-7.971-15.943-8.584-75.42-0.613-101.787 3.066-9.811-6.745-14.716-17.782-7.971z">
   </path>
   <path fill="#000"
      d="M2572.263 376.489c-33.725 15.329-58.251 55.186-58.251 95.042 0 9.198-3.066 19.622-6.745 23.301-4.905 4.905-4.905 10.424 0 19.008 3.679 6.745 6.745 20.235 6.745 29.432 0 25.14 26.98 66.836 51.507 78.486 33.111 15.943 78.486 12.877 101.787-6.132 22.687-19.622 36.79-44.762 36.79-68.062 0-9.198 3.679-23.914 7.971-32.498 6.132-12.263 6.745-18.395 0-30.659-4.292-8.584-7.971-23.914-7.971-33.725 0-57.025-75.42-99.334-131.832-74.194zM2653.202 402.242c27.593 17.169 33.725 34.951 33.725 95.655 0 67.449-6.132 86.457-33.111 103.013-47.214 28.819-103.626 6.132-115.277-45.988-11.65-49.667-4.292-123.861 14.103-142.256 12.877-13.49 54.572-25.753 71.741-22.074 8.584 1.84 21.461 7.358 28.819 11.65z">
   </path>
   <path fill="#000"
      d="M2584.527 404.081c-27.593 11.65-35.564 29.432-38.63 82.778-4.292 82.165 14.103 114.663 65.61 115.277 47.214 0.613 64.996-26.366 64.996-99.334 0-57.025-4.905-75.42-23.301-87.684-19.008-12.263-52.733-17.782-68.675-11.037zM2639.713 426.156c11.037 10.424 15.329 21.461 15.329 39.243 0 13.49-3.066 26.366-6.132 28.206-4.292 2.453-4.292 7.358 0 15.329 11.037 20.235 7.358 53.959-7.358 67.449-17.169 15.329-48.441 15.943-62.544 0.613-14.716-15.943-19.008-50.28-7.971-64.996 7.971-9.811 7.971-13.49 0.613-24.527-11.65-18.395-4.905-49.667 14.716-64.383 20.235-16.556 35.564-15.329 53.346 3.066z">
   </path>
   <path fill="#000"
      d="M2585.14 436.58c-5.519 7.358-9.811 22.074-9.198 32.498l0.613 18.395 7.358-21.461c4.292-11.65 14.103-24.527 21.461-28.206 20.848-10.424 22.074-14.716 4.905-14.716-9.198 0-19.622 5.519-25.14 13.49z">
   </path>
   <path fill="#000"
      d="M2579.622 519.358c-2.453 1.84-4.292 11.037-4.292 19.622v15.943l9.198-17.782c4.905-9.198 9.198-18.395 9.198-19.622 0-3.679-9.811-3.066-14.103 1.84z">
   </path>
   <path fill="#000"
      d="M2820.599 378.328c-27.593 14.103-46.601 43.535-52.12 79.713-2.453 16.556-7.358 33.111-10.424 36.79-4.292 5.519-4.292 10.424 0 15.329 3.066 4.292 7.971 21.461 10.424 38.017 3.679 23.301 10.424 36.79 27.593 55.186 21.461 22.687 25.753 24.527 61.931 26.366 47.828 3.066 72.354-9.811 91.363-46.601 14.716-29.432 14.716-31.272 3.066-31.272-4.905 0-12.877 9.198-17.782 20.848-11.65 27.593-34.951 42.309-67.449 42.922-56.412 1.226-77.26-30.046-77.26-116.503 0-82.778 20.848-112.824 80.326-112.824 20.235 0 28.819 3.679 45.988 20.848 11.65 11.65 20.848 25.14 20.848 30.046 0 9.198 22.687 18.395 26.98 11.037 4.905-7.358-30.046-52.12-49.054-63.157-29.432-17.169-69.289-19.622-94.429-6.745z">
   </path>
   <path fill="#000"
      d="M3004.551 374.649c0 3.066 3.066 5.519 6.132 5.519 9.198 0 7.971 106.079-1.226 115.277-5.519 5.519-5.519 9.198 0 14.716 9.811 9.811 9.811 104.24 0 114.050-5.519 5.519-3.679 7.358 9.198 7.358h16.556l-1.226-130.606-1.84-129.993-13.49-0.613c-7.971-0.613-14.103 1.84-14.103 4.292z">
   </path>
   <path fill="#000"
      d="M3055.444 372.196c-5.519 1.84-7.971 20.848-7.971 63.77v60.704h128.766v-60.704c0-44.762-1.84-61.317-7.971-63.77-12.877-4.905-22.687 3.679-16.556 14.103 3.679 4.905 6.132 27.593 6.132 50.28v41.696h-93.202l2.453-44.762c1.84-23.914 4.292-47.828 5.519-52.733 2.453-9.198-5.519-13.49-17.169-8.584z">
   </path>
   <path fill="#000"
      d="M3198.927 372.81c-9.811 1.84-10.424 11.65-9.198 128.766l1.84 126.927 17.782 1.84c17.169 1.84 17.169 1.84 7.358-11.65-12.877-18.395-13.49-90.137-1.226-106.692 7.358-10.424 7.358-13.49 0-23.914-9.811-14.716-11.65-84.618-2.453-101.787 6.745-12.877 2.453-17.169-14.103-13.49z">
   </path>
   <path fill="#000"
      d="M1775.751 390.592c11.037 22.074 11.037 81.552 0 97.495-6.132 7.971-6.745 14.103-2.453 19.008 11.65 14.103 13.49 84.618 3.066 105.466l-9.198 19.008h68.062c55.186 0 72.968-2.453 89.523-11.037 23.301-12.263 43.535-44.762 43.535-68.675 0-8.584 4.292-22.687 8.584-32.498 7.971-14.103 7.971-19.008 0-33.725-4.292-9.198-8.584-24.527-8.584-33.725 0-24.527-15.943-52.12-38.63-65.61-16.556-10.424-31.272-12.263-91.363-12.263h-71.741l9.198 16.556zM1900.838 394.271c33.725 11.65 49.054 44.762 48.441 105.466 0 90.75-17.782 111.598-97.495 114.050l-45.988 1.226-1.84-114.050-1.226-114.663 38.017 0.613c21.461 0 48.441 3.066 60.091 7.358z">
   </path>
   <path fill="#000"
      d="M1814.381 487.473c-0.613 49.054-1.226 95.042-1.226 102.4-0.613 12.877 2.453 14.103 33.111 15.943 60.091 3.066 82.778-15.329 92.589-74.194 7.971-51.507 0-90.137-23.301-113.437-18.395-18.395-22.687-19.622-60.091-19.622h-40.469l-0.613 88.91zM1906.357 432.901c14.103 17.782 17.169 50.893 5.519 62.544-5.519 5.519-5.519 9.198 0 14.716 4.292 4.292 7.358 17.169 7.358 29.432 0 30.046-15.943 44.149-55.186 47.828l-30.659 3.066v-36.79c0-19.622 3.066-39.243 7.358-43.535 5.519-5.519 5.519-9.198 0-14.716-4.292-4.292-7.358-23.301-7.358-42.922v-35.564h30.046c25.753 0 32.498 2.453 42.922 15.943z">
   </path>
   <path fill="#000"
      d="M1843.813 427.382c-6.745 6.132-4.905 49.667 1.84 53.959 3.679 2.453 6.132-6.132 6.132-20.848 0-24.527 0-25.14 23.301-25.753 20.235-0.613 20.848-1.226 7.358-5.519-20.235-6.132-33.725-7.358-38.63-1.84z">
   </path>
   <path fill="#000"
      d="M1849.945 513.226c-7.358 12.263-11.65 63.157-4.905 63.157 3.679 0 6.745-10.424 6.745-23.301s3.066-26.366 6.745-30.046c4.292-4.292 4.292-7.971 0.613-10.424-3.679-1.84-7.971-1.84-9.198 0.613z">
   </path>
   <path fill="#000"
      d="M2022.247 381.394c4.292 4.292 7.358 26.366 7.358 57.025s-3.066 52.733-7.358 57.025c-5.519 5.519-5.519 9.198 0 14.716 9.811 9.811 9.811 104.24 0 114.663-6.745 6.132-4.292 7.358 10.424 5.519l18.395-1.84 1.84-122.022 1.226-121.408 52.12 2.453c60.704 3.066 82.778 14.716 91.363 49.054 6.745 26.98-4.905 53.346-30.046 66.223-9.811 4.905-19.008 9.198-19.622 9.198s11.65 26.366 27.593 58.251c26.366 52.733 30.659 58.251 47.214 60.091 11.65 1.226 15.329 0 11.037-3.679-4.292-2.453-19.622-27.593-34.338-54.572l-26.98-49.667 16.556-12.877c33.111-24.527 39.243-83.392 10.424-109.145-25.14-23.301-39.243-26.366-112.211-26.366-56.412 0-70.515 1.84-64.996 7.358z">
   </path>
   <path fill="#000"
      d="M2273.648 381.394c9.198 9.198 9.811 106.692 1.226 112.211-4.292 2.453-4.292 7.358 0 15.329 9.198 16.556 7.971 106.079-1.226 115.89-6.745 6.132-4.292 7.358 10.424 5.519l18.395-1.84 1.84-121.408 1.226-120.795h38.63c50.28 0 80.939 9.198 96.268 28.819 22.074 28.819 11.037 77.873-21.461 92.589-8.584 4.292-34.951 7.358-58.251 7.358h-41.696l-4.292 44.762c-5.519 60.704-3.679 68.062 18.395 70.515 14.716 1.84 17.169 0.613 11.037-5.519-4.905-4.905-7.971-24.527-7.971-49.667v-41.696h35.564c44.149 0 74.194-14.716 88.297-42.922 20.848-40.469 11.037-77.873-25.14-102.4-19.008-12.877-28.206-14.103-94.429-14.103-57.638 0-72.354 1.84-66.836 7.358z">
   </path>
   <path fill="#000"
      d="M1391.904 396.11c0 4.905 3.066 7.358 6.132 5.519 3.679-1.84 6.132-6.132 6.132-9.811 0-3.066-2.453-5.519-6.132-5.519-3.066 0-6.132 4.292-6.132 9.811z">
   </path>
   <path fill="#000"
      d="M1733.442 390.592c-2.453 1.84-3.679 24.527-3.066 50.28l0.613 46.601 4.292-39.856c1.84-22.074 6.132-44.762 8.584-50.893 4.905-10.424-2.453-14.716-10.424-6.132z">
   </path>
   <path fill="#000"
      d="M3082.424 390.592c-2.453 1.84-3.679 20.848-3.679 41.083l1.226 37.404 4.292-30.659c2.453-17.169 6.132-35.564 8.584-41.696 4.905-10.424-2.453-14.716-10.424-6.132z">
   </path>
   <path fill="#000"
      d="M3222.841 390.592c-1.84 1.84-3.066 24.527-2.453 50.28l1.226 46.601 1.84-39.856c1.226-21.461 5.519-42.922 8.584-46.601 6.132-7.971-1.84-17.782-9.198-10.424z">
   </path>
   <path fill="#000"
      d="M2066.395 443.938c0 25.753 0 47.828 0 49.667 0 6.745 62.544 9.198 84.618 3.679 38.63-10.424 50.893-53.959 22.074-80.939-12.877-12.263-23.301-14.716-61.317-16.556l-45.375-2.453v46.601zM2159.598 427.382c25.753 23.301 4.905 53.959-41.696 59.478l-31.885 3.679-1.84-26.366c-3.679-44.762-2.453-47.214 32.498-47.214 20.848 0 35.564 3.679 42.922 10.424z">
   </path>
   <path fill="#000"
      d="M2092.762 432.901c-1.226 4.292-1.84 15.329 0 25.14 2.453 16.556 2.453 16.556 3.679-3.066 0.613-19.008 1.84-19.622 26.98-19.622 19.622-0.613 23.301-1.84 15.329-6.132-12.877-7.971-42.309-5.519-45.988 3.679z">
   </path>
   <path fill="#000"
      d="M2317.183 421.25c-1.226 12.877-1.84 37.404-0.613 54.572l2.453 30.659 46.601-0.613c42.309-1.226 47.828-3.066 60.704-17.782 19.622-22.687 19.008-52.12-1.84-71.741-12.877-12.263-23.301-14.716-60.091-16.556l-45.375-2.453-1.84 23.914zM2410.999 427.382c11.037 9.811 14.103 30.046 6.132 42.309s-30.659 20.848-55.799 20.848h-25.14v-73.581h31.885c20.848 0 35.564 3.679 42.922 10.424z">
   </path>
   <path fill="#000"
      d="M2343.55 451.909c0.613 26.98 1.226 27.593 3.066 6.132 2.453-22.074 3.066-22.687 28.206-22.687 19.008 0 23.301-1.84 16.556-6.132-4.905-3.066-18.395-6.132-28.819-6.132-20.235 0-20.235 0-19.008 28.819z">
   </path>
   <path fill="#000"
      d="M2821.825 410.826c-11.65 11.037-14.716 22.074-22.074 72.968-4.292 29.432 7.358 94.429 19.008 106.079 15.943 15.329 52.12 20.848 76.034 11.037 28.206-11.65 38.63-49.054 13.49-49.054-5.519 0-7.971 3.679-5.519 9.198 4.292 12.263-19.008 27.593-43.535 27.593-14.103 0-22.687-4.292-29.432-14.716-11.037-16.556-14.103-56.412-4.905-65.61 4.905-4.905 4.292-11.037-1.226-22.074-15.329-28.819 1.84-66.223 33.111-72.354 16.556-3.066 51.507 12.877 46.601 21.461-5.519 9.198 2.453 18.395 12.263 14.103 13.49-4.905 11.037-19.008-6.132-35.564-19.622-20.235-67.449-21.461-87.684-3.066z">
   </path>
   <path fill="#000"
      d="M1326.908 473.37c-12.263 38.017-23.914 72.968-25.753 76.647-1.84 6.132 11.037 7.971 50.893 7.971 48.441 0 52.733-1.226 49.054-11.037-1.84-5.519-13.49-39.856-25.14-76.647-11.65-36.177-22.687-65.61-23.914-65.61s-12.263 31.272-25.14 68.675zM1369.217 493.605c4.905 16.556 11.037 35.564 13.49 41.083 3.679 9.811 0 11.037-30.046 11.037-19.008 0-34.338-1.226-34.338-1.84 0-2.453 20.848-63.77 27.593-83.392 4.905-12.877 12.877-1.84 23.301 33.111z">
   </path>
   <path fill="#000"
      d="M1343.463 504.642c-4.292 12.877-6.132 25.14-4.292 26.98 4.905 4.905 17.169-28.819 14.103-40.469-1.226-5.519-5.519 0.613-9.811 13.49z">
   </path>
   <path fill="#000"
      d="M1551.329 516.905v114.663h15.329c14.103 0 14.716-1.226 9.198-12.263-3.679-7.358-5.519-40.469-4.905-80.939 1.226-51.507 3.679-66.223 7.971-56.412 3.679 6.745 22.074 37.404 41.696 68.675 19.622 30.659 36.177 61.317 36.79 68.675 0.613 8.584 4.905 12.263 14.716 12.263 7.971 0 14.103-3.066 14.103-6.132 0-4.905-123.861-210.932-132.446-220.129-1.226-1.226-2.453 49.054-2.453 111.598z">
   </path>
   <path fill="#000"
      d="M2839.607 431.061c-7.971 9.811-15.943 47.214-10.424 47.214 2.453 0 7.358-8.584 11.037-18.395 3.679-11.65 11.65-19.622 20.848-22.074 7.971-1.84 14.716-6.132 14.716-9.198 0-8.584-28.206-6.745-36.177 2.453z">
   </path>
   <path fill="#000"
      d="M1981.164 463.559c0 6.745 1.84 8.584 3.679 3.679 1.84-4.292 1.226-9.811-0.613-11.65-1.84-2.453-3.679 1.226-3.066 7.971z">
   </path>
   <path fill="#000"
      d="M2230.113 458.041c-2.453 1.84-4.292 8.584-4.292 14.716s-8.584 20.848-19.008 33.111c-11.037 12.263-17.782 23.914-15.329 25.753 7.358 7.358 34.338-25.14 41.083-49.054 6.132-23.914 5.519-32.498-2.453-24.527z">
   </path>
   <path fill="#000"
      d="M2478.448 475.823c-7.358 25.14-23.301 44.149-50.28 57.638-15.943 8.584-25.753 10.424-62.544 11.65l-23.301 0.613 1.226 34.951 1.226 35.564 1.84-31.272 2.453-31.272 44.149-3.679c28.206-2.453 49.054-7.971 59.478-15.329 19.622-14.103 38.63-51.507 35.564-69.902-1.84-11.65-3.679-9.198-9.811 11.037z">
   </path>
   <path fill="#000"
      d="M2918.707 459.88c-7.358 4.905-5.519 6.132 7.971 6.132 9.811 0 15.943-2.453 13.49-6.132-4.905-7.358-9.811-7.358-21.461 0z">
   </path>
   <path fill="#000"
      d="M2961.629 459.88c-7.358 4.905-5.519 6.132 7.971 6.132 9.811 0 15.943-2.453 13.49-6.132-4.905-7.358-9.811-7.358-21.461 0z">
   </path>
   <path fill="#000"
      d="M2716.972 469.691c0 6.745 1.84 8.584 3.679 3.679 1.84-4.292 1.226-9.811-0.613-11.65-1.84-2.453-3.679 1.226-3.066 7.971z">
   </path>
   <path fill="#000"
      d="M3079.358 507.095l-32.498 2.453 3.679 118.956 16.556 1.84c16.556 1.84 16.556 1.84 7.971-15.329-5.519-9.811-9.198-33.725-9.198-55.799v-38.017h91.976v47.828c0 28.819-3.066 50.893-7.358 55.186-5.519 5.519-3.679 7.358 9.198 7.358h16.556v-128.766l-31.885 1.226c-17.782 0.613-47.214 1.84-64.996 3.066z">
   </path>
   <path fill="#000"
      d="M1735.895 520.584c-3.679 6.745-6.132 30.659-5.519 53.959l0.613 41.696 3.679-40.469c1.84-22.074 7.358-44.762 11.65-50.28 4.905-5.519 5.519-10.424 1.84-12.877s-9.198 1.226-12.263 7.971z">
   </path>
   <path fill="#000"
      d="M1987.909 519.358c-3.066 6.132-7.358 23.301-9.198 38.017-7.358 58.251-41.696 80.939-129.38 87.071l-61.931 3.679h65.61c75.42 0.613 97.495-7.358 119.569-40.469 7.971-11.65 14.103-29.432 14.103-39.856s4.292-26.366 8.584-35.564c4.905-9.198 6.745-18.395 3.679-20.235s-7.971 1.226-11.037 7.358z">
   </path>
   <path fill="#000"
      d="M2724.331 516.905c-3.679 3.679-7.971 20.848-10.424 36.79-6.132 50.893-34.951 78.486-91.363 90.137l-25.753 4.905 27.593 0.613c53.346 1.226 88.91-28.819 97.495-83.392 2.453-17.782 7.971-36.177 12.263-41.083s4.905-10.424 1.84-12.263c-3.679-1.84-8.584 0-11.65 4.292z">
   </path>
   <path fill="#000"
      d="M2834.089 516.292c-9.198 9.198-9.811 39.856-1.226 44.762 3.679 1.84 4.292-0.613 2.453-6.132-2.453-4.905 0.613-15.943 6.132-24.527 10.424-15.329 4.292-25.753-7.358-14.103z">
   </path>
   <path fill="#000"
      d="M1442.184 527.329c0 8.584 1.226 11.65 3.066 7.358 1.226-3.679 1.226-11.037 0-15.329-1.84-3.679-3.066-0.613-3.066 7.971z">
   </path>
   <path fill="#000"
      d="M1583.828 564.12c0 28.819 1.226 40.469 2.453 25.753 1.226-14.103 1.226-37.404 0-52.12-1.226-14.103-2.453-2.453-2.453 26.366z">
   </path>
   <path fill="#000"
      d="M2064.556 553.083c-5.519 64.383-3.066 74.807 17.782 77.26 14.103 1.84 16.556 0.613 10.424-5.519-4.905-4.905-7.971-25.14-7.971-52.733v-44.762h17.169c15.329 0 20.235 4.905 37.404 39.243 11.037 22.074 20.235 45.375 20.848 52.12 0.613 9.198 4.905 12.877 14.716 12.877 7.971 0 14.103-2.453 14.103-6.132 0-3.066-11.65-29.432-25.753-58.251l-25.753-52.12h-69.902l-3.066 38.017z">
   </path>
   <path fill="#000"
      d="M3223.454 519.358c-2.453 1.84-3.679 24.527-3.066 50.28l1.226 46.601 1.84-39.856c1.226-22.074 4.905-42.309 8.584-45.988 3.066-3.066 5.519-7.971 5.519-10.424 0-6.132-8.584-6.745-14.103-0.613z">
   </path>
   <path fill="#000"
      d="M3079.358 571.478l1.226 38.63 1.84-34.951 2.453-34.951 31.885-2.453 31.885-1.84-70.515-2.453 1.226 38.017z">
   </path>
   <path fill="#000"
      d="M2092.149 577.61l1.226 38.63 1.84-34.951c1.84-26.366 4.905-35.564 12.877-37.404 7.358-1.84 6.745-3.066-3.066-3.679-13.49-0.613-14.103 1.226-12.877 37.404z">
   </path>
   <path fill="#000"
      d="M1285.825 597.231c-10.424 30.659-9.198 34.338 12.877 34.338 12.263 0 13.49-1.84 7.358-8.584-3.679-4.905-6.132-15.329-4.905-22.074 1.84-12.263 6.132-13.49 49.667-14.103 44.762-1.226 47.828-0.613 51.507 12.877 1.84 7.358 0 17.782-4.292 22.687-6.132 7.971-4.905 9.198 7.358 9.198 22.074 0 23.301-3.679 12.877-34.338l-9.198-26.98h-114.050l-9.198 26.98z">
   </path>
   <path fill="#000"
      d="M2954.884 592.939c-17.169 26.98-43.535 43.535-80.326 50.28-25.753 5.519-25.753 5.519-4.905 6.132 47.828 1.226 77.873-16.556 106.079-62.544 17.169-26.366-3.066-20.848-20.848 6.132z">
   </path>
   <path fill="#000"
      d="M1310.352 603.976c-2.453 4.905-1.226 10.424 1.226 12.263 3.066 1.84 6.745-1.226 8.584-6.132 2.453-5.519 15.329-9.198 39.243-11.037l35.564-1.84-40.469-1.226c-31.272-1.226-41.696 1.226-44.149 7.971z">
   </path>
   <path fill="#000"
      d="M1253.94 643.832c-1.84 3.066 1.84 6.132 8.584 6.132s14.103-3.066 15.943-6.132c1.84-3.679-1.84-6.132-8.584-6.132s-14.103 2.453-15.943 6.132z">
   </path>
   <path fill="#000"
      d="M1302.994 643.832c-1.84 3.066 1.84 6.132 8.584 6.132 7.358 0 12.877-3.066 12.877-6.132 0-3.679-3.679-6.132-8.584-6.132s-11.037 2.453-12.877 6.132z">
   </path>
   <path fill="#000"
      d="M1413.365 643.832c-1.84 3.066 1.84 6.132 8.584 6.132s14.103-3.066 15.943-6.132c1.84-3.679-1.84-6.132-8.584-6.132s-14.103 2.453-15.943 6.132z">
   </path>
   <path fill="#000"
      d="M1462.419 643.832c-2.453 3.679 3.066 6.132 12.263 6.132s14.716-2.453 12.263-6.132c-1.84-3.679-7.358-6.132-12.263-6.132s-10.424 2.453-12.263 6.132z">
   </path>
   <path fill="#000"
      d="M1526.802 643.832c-7.358 4.905-5.519 6.132 7.971 6.132 9.198 0 16.556-3.066 16.556-6.132 0-7.971-12.263-7.971-24.527 0z">
   </path>
   <path fill="#000"
      d="M1578.922 643.832c-1.84 3.066 1.84 6.132 9.198 6.132s11.037-3.066 9.198-6.132c-1.84-3.679-6.132-6.132-9.198-6.132s-7.358 2.453-9.198 6.132z">
   </path>
   <path fill="#000"
      d="M1677.030 643.832c-2.453 3.679 3.066 6.132 11.65 6.132s15.943-3.066 15.943-6.132c0-3.679-5.519-6.132-11.65-6.132-6.745 0-14.103 2.453-15.943 6.132z">
   </path>
   <path fill="#000"
      d="M1726.084 643.832c-1.84 3.066 1.84 6.132 9.198 6.132s11.037-3.066 9.198-6.132c-1.84-3.679-6.132-6.132-9.198-6.132s-7.358 2.453-9.198 6.132z">
   </path>
   <path fill="#000"
      d="M2038.802 643.832c-2.453 3.679 3.066 6.132 11.65 6.132s15.943-3.066 15.943-6.132c0-3.679-5.519-6.132-11.65-6.132-6.745 0-14.103 2.453-15.943 6.132z">
   </path>
   <path fill="#000"
      d="M2090.922 643.832c-7.358 4.905-6.745 6.132 4.905 6.132 7.358 0 13.49-3.066 13.49-6.132 0-7.971-6.745-7.971-18.395 0z">
   </path>
   <path fill="#000"
      d="M2182.898 643.832c-7.358 4.905-6.745 6.132 4.905 6.132 7.358 0 13.49-3.066 13.49-6.132 0-7.971-6.745-7.971-18.395 0z">
   </path>
   <path fill="#000"
      d="M2231.952 643.832c-7.358 4.905-6.745 6.132 4.905 6.132 7.358 0 13.49-3.066 13.49-6.132 0-7.971-6.745-7.971-18.395 0z">
   </path>
   <path fill="#000"
      d="M2290.204 643.832c-2.453 3.679 3.066 6.132 11.65 6.132s15.943-3.066 15.943-6.132c0-3.679-5.519-6.132-11.65-6.132-6.745 0-14.103 2.453-15.943 6.132z">
   </path>
   <path fill="#000"
      d="M2342.323 643.832c-7.358 4.905-6.745 6.132 4.905 6.132 7.358 0 13.49-3.066 13.49-6.132 0-7.971-6.745-7.971-18.395 0z">
   </path>
   <path fill="#000"
      d="M3026.012 643.832c-2.453 3.679 3.066 6.132 11.65 6.132s15.943-3.066 15.943-6.132c0-3.679-5.519-6.132-11.65-6.132-6.745 0-14.103 2.453-15.943 6.132z">
   </path>
   <path fill="#000"
      d="M3075.066 643.832c-1.84 3.066 1.84 6.132 9.198 6.132s11.037-3.066 9.198-6.132c-1.84-3.679-6.132-6.132-9.198-6.132s-7.358 2.453-9.198 6.132z">
   </path>
   <path fill="#000"
      d="M3167.042 643.832c-1.84 3.066 1.84 6.132 8.584 6.132 7.358 0 12.877-3.066 12.877-6.132 0-3.679-3.679-6.132-8.584-6.132s-11.037 2.453-12.877 6.132z">
   </path>
   <path fill="#000"
      d="M3216.096 643.832c-1.84 3.066 1.84 6.132 9.198 6.132s11.037-3.066 9.198-6.132c-1.84-3.679-6.132-6.132-9.198-6.132s-7.358 2.453-9.198 6.132z">
   </path>
</svg>