<svg version="1.1" xmlns="http://www.w3.org/2000/svg" width="50" height="50" viewBox="10 5 15 25" fill='grey'>
   <title>responsibility</title>
   <path
      d="M18.571 8.857c-0.309 0.171-0.926 1.051-1.074 1.509-0.069 0.251-0.046 0.263 0.789 0.263h0.869v-0.971c0-1.051-0.034-1.097-0.583-0.8z">
   </path>
   <path
      d="M19.725 9.714v0.914h1.371l-0.114-0.297c-0.251-0.651-0.914-1.531-1.166-1.531-0.046 0-0.091 0.411-0.091 0.914z">
   </path>
   <path
      d="M21.005 8.983c0.023 0.057 0.217 0.446 0.423 0.869l0.377 0.777h0.56c0.309 0 0.56-0.046 0.56-0.091 0-0.149-1.051-1.109-1.531-1.394-0.24-0.149-0.423-0.217-0.389-0.16z">
   </path>
   <path
      d="M16.982 9.337c-0.4 0.263-1.029 0.857-1.154 1.086-0.103 0.183-0.057 0.206 0.377 0.206h0.491l0.343-0.743c0.194-0.411 0.32-0.743 0.286-0.743s-0.194 0.080-0.343 0.194z">
   </path>
   <path
      d="M15.165 11.737c-0.069 0.24-0.126 0.606-0.126 0.8v0.377h0.686c0.64 0 0.686-0.011 0.686-0.274 0-0.149 0.034-0.503 0.069-0.8l0.080-0.526h-1.28l-0.114 0.423z">
   </path>
   <path d="M17.165 11.566c-0.034 0.149-0.069 0.503-0.069 0.8v0.549h2.057v-1.6h-0.96c-0.891 0-0.96 0.011-1.029 0.251z">
   </path>
   <path
      d="M19.771 12.080l0.011 0.777 1.657 0.069v-0.377c0-0.206-0.034-0.571-0.069-0.811l-0.080-0.423h-1.543l0.023 0.766z">
   </path>
   <path
      d="M22.022 11.909c0.046 0.331 0.091 0.697 0.091 0.811 0.011 0.183 0.103 0.206 0.789 0.171l0.766-0.034-0.034-0.4c-0.023-0.217-0.091-0.571-0.149-0.777-0.114-0.366-0.126-0.366-0.834-0.366h-0.709l0.080 0.594z">
   </path>
   <path
      d="M15.097 13.909c0.034 0.229 0.16 0.606 0.263 0.823 0.183 0.377 0.24 0.411 0.754 0.446l0.549 0.034-0.069-0.377c-0.034-0.206-0.091-0.594-0.137-0.869l-0.080-0.48h-1.36l0.080 0.423z">
   </path>
   <path
      d="M17.097 13.771c0 0.149 0.057 0.537 0.126 0.857l0.126 0.571h1.806v-1.714h-1.029c-1.017 0-1.029 0-1.029 0.286z">
   </path>
   <path
      d="M19.771 13.646c-0.034 0.080-0.046 0.457-0.023 0.823l0.034 0.674 0.663 0.034c0.743 0.034 0.789 0 0.937-1.097l0.080-0.594h-0.811c-0.583 0-0.834 0.046-0.88 0.16z">
   </path>
   <path
      d="M22.079 13.623c-0.023 0.080-0.091 0.469-0.149 0.857l-0.103 0.72h1.314l0.229-0.629c0.389-1.040 0.366-1.086-0.503-1.086-0.503 0-0.766 0.046-0.789 0.137z">
   </path>
   <path
      d="M16.354 16.114c0.183 0.194 0.503 0.446 0.709 0.571l0.377 0.217-0.286-0.56c-0.263-0.526-0.32-0.571-0.709-0.571h-0.423l0.331 0.343z">
   </path>
   <path
      d="M17.668 15.897c0 0.24 0.469 0.891 0.8 1.131 0.571 0.411 0.686 0.32 0.686-0.514v-0.743h-0.743c-0.48 0-0.743 0.046-0.743 0.126z">
   </path>
   <path
      d="M19.805 15.851c-0.114 0.103-0.103 1.291 0.011 1.291 0.206 0 1.051-1.051 1.051-1.303 0-0.091-0.971-0.080-1.063 0.011z">
   </path>
   <path
      d="M21.588 15.909c-0.057 0.080-0.217 0.377-0.366 0.651l-0.274 0.503 0.446-0.251c0.446-0.251 1.189-0.869 1.189-0.983 0-0.126-0.891-0.046-0.994 0.080z">
   </path>
   <path
      d="M12.639 16.789c-0.411 0.114-1.029 0.32-1.371 0.457-0.4 0.16-0.994 0.286-1.646 0.32l-1.006 0.069-0.16 0.377c-0.217 0.526-0.503 2.229-0.503 3.029 0 1.497 0.469 1.794 1.783 1.131 0.594-0.297 0.789-0.343 1.703-0.343 1.291 0 2.126 0.206 3.371 0.846 2.091 1.074 2.994 1.2 4.149 0.629 1.737-0.88 3.943-2.709 4.823-4.023 0.686-1.006 0.354-2.023-0.663-2.023-0.389 0-1.36 0.503-1.726 0.903l-0.331 0.354-0.206-0.343c-0.274-0.446-0.651-0.526-1.817-0.343-2.023 0.297-1.943 0.309-2.571-0.217-1.211-1.006-2.331-1.246-3.829-0.823zM14.674 17.2c0.331 0.103 0.926 0.434 1.349 0.754 0.423 0.309 0.903 0.594 1.074 0.629 0.16 0.034 0.743-0.011 1.28-0.114 1.28-0.24 2.034-0.24 2.034-0.011 0 0.834-2.583 1.554-4.377 1.211-0.743-0.137-1.109-0.034-1.109 0.32 0 0.423 0.274 0.491 2.034 0.503 2.32 0.023 2.846-0.16 4.206-1.417 0.537-0.503 1.131-0.983 1.326-1.086 0.446-0.229 1.051-0.171 1.097 0.103 0.080 0.434-0.114 0.766-1.063 1.84-0.754 0.834-1.269 1.28-2.263 1.943-1.806 1.211-2.183 1.36-2.96 1.2-0.331-0.069-1.246-0.423-2.034-0.789-1.771-0.834-2.046-0.903-3.566-0.994l-1.223-0.069-0.88 0.423c-0.674 0.32-0.903 0.389-0.983 0.274-0.217-0.343-0.080-2.171 0.251-3.429l0.126-0.434h0.846c0.594 0 0.994-0.069 1.394-0.24 0.503-0.217 2.434-0.766 2.731-0.789 0.069 0 0.389 0.080 0.709 0.171z">
   </path>
   <path
      d="M9.245 33.429c0 0.309 0.023 0.434 0.046 0.251 0.023-0.171 0.091-0.309 0.149-0.309s0.126 0.137 0.149 0.309c0.046 0.297 0.046 0.297 0.069-0.057 0.011-0.251-0.046-0.366-0.149-0.366-0.091 0-0.194-0.091-0.217-0.206-0.034-0.103-0.057 0.057-0.046 0.377z">
   </path>
   <path
      d="M14.948 33.429c0 0.309 0.023 0.491 0.057 0.4s0.149-0.274 0.251-0.4c0.171-0.206 0.171-0.217-0.011-0.080-0.16 0.137-0.194 0.114-0.24-0.171-0.023-0.183-0.046-0.069-0.057 0.251z">
   </path>
   <path
      d="M10.571 33.154c-0.091 0.229 0.046 0.709 0.217 0.743 0.080 0.011 0.091 0 0.023-0.034-0.171-0.080-0.137-0.491 0.046-0.491 0.091 0 0.183 0.114 0.206 0.251s0.103 0.263 0.183 0.274c0.080 0.011 0.091 0 0.023-0.034-0.137-0.069-0.149-0.457-0.011-0.514 0.057-0.023 0.034-0.103-0.057-0.183s-0.16-0.091-0.16-0.023c0 0.16-0.309 0.149-0.366-0.023-0.034-0.091-0.069-0.080-0.103 0.034z">
   </path>
   <path
      d="M13.188 33.177c-0.080 0.217 0.069 0.686 0.229 0.72 0.080 0.011 0.091 0 0.023-0.034-0.137-0.069-0.149-0.457-0.011-0.514 0.057-0.023 0.034-0.091-0.046-0.171-0.114-0.103-0.16-0.103-0.194 0z">
   </path>
   <path
      d="M19.497 33.086c-0.011 0.057-0.011 0.24 0 0.389s-0.046 0.32-0.137 0.366c-0.103 0.069-0.034 0.103 0.194 0.103 0.194 0 0.286-0.046 0.206-0.091-0.069-0.046-0.149-0.263-0.183-0.48-0.023-0.217-0.057-0.354-0.080-0.286z">
   </path>
   <path
      d="M20.011 33.143c-0.046 0.069 0.011 0.080 0.126 0.034 0.149-0.057 0.183-0.034 0.126 0.114-0.034 0.103-0.023 0.217 0.046 0.251 0.16 0.103-0.011 0.309-0.206 0.24-0.091-0.034-0.126-0.011-0.091 0.046 0.103 0.16 0.366 0.137 0.434-0.034 0.16-0.434-0.217-1.006-0.434-0.651z">
   </path>
   <path
      d="M20.685 33.2c-0.046 0.091-0.011 0.251 0.069 0.343 0.069 0.091 0.103 0.217 0.057 0.286-0.034 0.057-0.046 0.114-0.011 0.114 0.114 0 0.377-0.629 0.331-0.777-0.069-0.194-0.366-0.171-0.446 0.034zM21.005 33.314c0 0.057-0.057 0.126-0.126 0.149s-0.126-0.046-0.126-0.149c0-0.103 0.057-0.171 0.126-0.149s0.126 0.091 0.126 0.149z">
   </path>
   <path
      d="M21.371 33.2c-0.046 0.091-0.011 0.251 0.069 0.343 0.069 0.091 0.103 0.217 0.057 0.286-0.034 0.057-0.046 0.114-0.011 0.114 0.114 0 0.377-0.629 0.331-0.777-0.069-0.194-0.366-0.171-0.446 0.034zM21.691 33.314c0 0.057-0.057 0.126-0.126 0.149s-0.126-0.046-0.126-0.149c0-0.103 0.057-0.171 0.126-0.149s0.126 0.091 0.126 0.149z">
   </path>
   <path
      d="M22.239 33.086c-0.011 0.057-0.011 0.24 0 0.389s-0.046 0.32-0.137 0.366c-0.103 0.069-0.034 0.103 0.194 0.103 0.194 0 0.286-0.046 0.206-0.091-0.069-0.046-0.149-0.263-0.183-0.48-0.023-0.217-0.057-0.354-0.080-0.286z">
   </path>
   <path
      d="M22.777 33.109c-0.034 0.057-0.046 0.24-0.034 0.434 0.011 0.263 0.069 0.343 0.24 0.343 0.126 0 0.229-0.069 0.217-0.149-0.011-0.069-0.023-0.263-0.023-0.423-0.023-0.263-0.286-0.4-0.4-0.206zM23.039 33.257c0 0.057-0.046 0.114-0.114 0.114-0.057 0-0.114-0.057-0.114-0.114 0-0.069 0.057-0.114 0.114-0.114 0.069 0 0.114 0.046 0.114 0.114zM23.062 33.657c0 0.057-0.057 0.126-0.126 0.149s-0.126-0.046-0.126-0.149c0-0.103 0.057-0.171 0.126-0.149s0.126 0.091 0.126 0.149z">
   </path>
   <path
      d="M23.439 33.143c-0.034 0.057 0 0.080 0.091 0.046 0.274-0.103 0.32 0.137 0.080 0.354-0.309 0.286-0.286 0.4 0.091 0.389 0.24 0 0.263-0.023 0.103-0.080-0.171-0.080-0.183-0.114-0.034-0.309 0.080-0.114 0.137-0.286 0.103-0.366-0.069-0.171-0.331-0.194-0.434-0.034z">
   </path>
   <path
      d="M24.114 33.2c-0.046 0.091-0.011 0.251 0.069 0.343 0.069 0.091 0.103 0.217 0.057 0.286-0.034 0.057-0.046 0.114-0.011 0.114 0.114 0 0.377-0.629 0.331-0.777-0.069-0.194-0.366-0.171-0.446 0.034zM24.434 33.314c0 0.057-0.057 0.126-0.126 0.149s-0.126-0.046-0.126-0.149c0-0.103 0.057-0.171 0.126-0.149s0.126 0.091 0.126 0.149z">
   </path>
   <path
      d="M24.811 33.143c-0.034 0.057 0 0.080 0.091 0.046 0.274-0.103 0.32 0.137 0.080 0.354-0.309 0.286-0.286 0.4 0.091 0.389 0.24 0 0.263-0.023 0.103-0.080-0.171-0.080-0.183-0.114-0.034-0.309 0.080-0.114 0.137-0.286 0.103-0.366-0.069-0.171-0.331-0.194-0.434-0.034z">
   </path>
   <path
      d="M25.554 33.303c-0.171 0.331-0.091 0.64 0.171 0.64s0.354-0.354 0.137-0.514c-0.137-0.103-0.16-0.16-0.057-0.263 0.080-0.080 0.091-0.137 0.023-0.137s-0.183 0.126-0.274 0.274zM25.805 33.657c0 0.057-0.057 0.126-0.126 0.149s-0.126-0.046-0.126-0.149c0-0.103 0.057-0.171 0.126-0.149s0.126 0.091 0.126 0.149z">
   </path>
   <path
      d="M8.639 33.451c0 0.114 0.046 0.16 0.091 0.091s0.126-0.149 0.183-0.206c0.057-0.046 0.023-0.080-0.080-0.080-0.114 0-0.194 0.091-0.194 0.194z">
   </path>
   <path
      d="M9.908 33.566c-0.011 0.309 0.034 0.377 0.217 0.377s0.229-0.069 0.217-0.377c-0.023-0.343-0.023-0.343-0.069-0.057-0.069 0.411-0.229 0.411-0.297 0-0.046-0.286-0.046-0.286-0.069 0.057z">
   </path>
   <path
      d="M11.577 33.326c-0.149 0.149-0.080 0.274 0.16 0.274 0.126 0 0.217-0.057 0.194-0.137-0.057-0.16-0.251-0.24-0.354-0.137z">
   </path>
   <path
      d="M12.194 33.623c0.023 0.32 0.023 0.331 0.069 0.091 0.034-0.16 0.114-0.32 0.194-0.366 0.080-0.057 0.057-0.091-0.069-0.091-0.16 0-0.206 0.091-0.194 0.366z">
   </path>
   <path
      d="M12.639 33.451c0 0.114 0.046 0.16 0.091 0.091s0.126-0.149 0.183-0.206c0.057-0.046 0.023-0.080-0.080-0.080-0.114 0-0.194 0.091-0.194 0.194z">
   </path>
   <path
      d="M13.714 33.429c-0.091 0.24 0.023 0.514 0.229 0.514 0.194 0 0.32-0.274 0.229-0.514-0.046-0.091-0.149-0.171-0.229-0.171-0.091 0-0.194 0.080-0.229 0.171zM14.068 33.6c0 0.080-0.069 0.171-0.137 0.194-0.091 0.034-0.149-0.046-0.149-0.194s0.057-0.229 0.149-0.206c0.069 0.034 0.137 0.126 0.137 0.206z">
   </path>
   <path
      d="M14.399 33.429c-0.091 0.229 0.023 0.514 0.206 0.503 0.114 0 0.114-0.023 0.011-0.069-0.080-0.023-0.149-0.149-0.149-0.263s0.069-0.24 0.149-0.263c0.103-0.046 0.103-0.069-0.011-0.069-0.080-0.011-0.171 0.069-0.206 0.16z">
   </path>
   <path
      d="M15.999 33.429c-0.091 0.229 0.023 0.514 0.206 0.503 0.114 0 0.114-0.023 0.011-0.069-0.080-0.023-0.149-0.149-0.149-0.263s0.069-0.24 0.149-0.263c0.103-0.046 0.103-0.069-0.011-0.069-0.080-0.011-0.171 0.069-0.206 0.16z">
   </path>
   <path
      d="M16.571 33.429c-0.091 0.24 0.023 0.514 0.229 0.514 0.194 0 0.32-0.274 0.229-0.514-0.046-0.091-0.149-0.171-0.229-0.171-0.091 0-0.194 0.080-0.229 0.171zM16.925 33.6c0 0.080-0.069 0.171-0.137 0.194-0.091 0.034-0.149-0.046-0.149-0.194s0.057-0.229 0.149-0.206c0.069 0.034 0.137 0.126 0.137 0.206z">
   </path>
   <path
      d="M17.222 33.634c0.023 0.354 0.023 0.354 0.069 0.046 0.023-0.171 0.091-0.309 0.149-0.309s0.126 0.137 0.149 0.309l0.046 0.32 0.023-0.32c0-0.171 0.057-0.309 0.114-0.309s0.137 0.137 0.16 0.309c0.046 0.309 0.046 0.309 0.069-0.046 0.011-0.331-0.011-0.354-0.389-0.354s-0.4 0.023-0.389 0.354z">
   </path>
   <path
      d="M8.777 33.771c-0.126 0.137-0.114 0.171 0.034 0.171 0.091 0 0.171-0.080 0.171-0.171 0-0.206-0.023-0.206-0.206 0z">
   </path>
   <path
      d="M12.777 33.771c-0.126 0.137-0.114 0.171 0.034 0.171 0.091 0 0.171-0.080 0.171-0.171 0-0.206-0.023-0.206-0.206 0z">
   </path>
   <path
      d="M15.154 33.703c0 0.057 0.057 0.149 0.114 0.183 0.069 0.034 0.114 0.023 0.114-0.046 0-0.057-0.046-0.149-0.114-0.183-0.057-0.034-0.114-0.023-0.114 0.046z">
   </path>
   <path
      d="M11.588 33.851c0.057 0.057 0.183 0.091 0.263 0.069 0.091-0.034 0.034-0.080-0.114-0.126-0.194-0.046-0.24-0.034-0.149 0.057z">
   </path>
</svg>